G75*
%MOIN*%
%OFA0B0*%
%FSLAX25Y25*%
%IPPOS*%
%LPD*%
%AMOC8*
5,1,8,0,0,1.08239X$1,22.5*
%
%ADD10C,0.20285*%
%ADD11C,0.16348*%
%ADD12C,0.06600*%
%ADD13R,0.06506X0.05718*%
%ADD14R,0.22254X0.04537*%
%ADD15R,0.13986X0.06899*%
%ADD16C,0.05400*%
%ADD17OC8,0.07200*%
%ADD18C,0.06300*%
%ADD19C,0.06200*%
%ADD20R,0.06200X0.06200*%
%ADD21R,0.03750X0.10049*%
%ADD22OC8,0.07600*%
%ADD23R,0.04537X0.22254*%
%ADD24R,0.06899X0.13986*%
%ADD25OC8,0.08000*%
%ADD26R,0.05718X0.06506*%
%ADD27C,0.04362*%
%ADD28C,0.06506*%
%ADD29C,0.03969*%
%ADD30C,0.03600*%
D10*
X0162706Y0410343D03*
X0162706Y0725304D03*
X0756013Y0685934D03*
X0756406Y0449713D03*
D11*
X0549259Y0301383D03*
D12*
X0278891Y0305013D02*
X0274648Y0300771D01*
X0267577Y0307842D02*
X0271820Y0312085D01*
X0264749Y0319156D02*
X0260506Y0314913D01*
X0253435Y0321984D02*
X0257678Y0326227D01*
X0250606Y0333298D02*
X0246364Y0329055D01*
X0246800Y0413800D02*
X0246800Y0419800D01*
X0236800Y0419800D02*
X0236800Y0413800D01*
X0256800Y0413800D02*
X0256800Y0419800D01*
X0266800Y0419800D02*
X0266800Y0413800D01*
X0276800Y0413800D02*
X0276800Y0419800D01*
X0286800Y0419800D02*
X0286800Y0413800D01*
X0296800Y0413800D02*
X0296800Y0419800D01*
X0306800Y0419800D02*
X0306800Y0413800D01*
X0316800Y0413800D02*
X0316800Y0419800D01*
X0326800Y0419800D02*
X0326800Y0413800D01*
X0336800Y0413800D02*
X0336800Y0419800D01*
X0346800Y0419800D02*
X0346800Y0413800D01*
X0356800Y0413800D02*
X0356800Y0419800D01*
X0366800Y0419800D02*
X0366800Y0413800D01*
X0376800Y0413800D02*
X0376800Y0419800D01*
X0386800Y0419800D02*
X0386800Y0413800D01*
X0396800Y0413800D02*
X0396800Y0419800D01*
X0406800Y0419800D02*
X0406800Y0413800D01*
X0416800Y0413800D02*
X0416800Y0419800D01*
X0426800Y0419800D02*
X0426800Y0413800D01*
X0496800Y0229800D02*
X0496800Y0223800D01*
X0506800Y0223800D02*
X0506800Y0229800D01*
X0516800Y0229800D02*
X0516800Y0223800D01*
X0526800Y0223800D02*
X0526800Y0229800D01*
X0536800Y0229800D02*
X0536800Y0223800D01*
X0750702Y0304750D02*
X0754945Y0300508D01*
X0762016Y0307579D02*
X0757773Y0311821D01*
X0764844Y0318892D02*
X0769087Y0314650D01*
X0776158Y0321721D02*
X0771915Y0325963D01*
X0778986Y0333035D02*
X0783229Y0328792D01*
X0704800Y0546800D02*
X0698800Y0546800D01*
X0698800Y0556800D02*
X0704800Y0556800D01*
X0704800Y0566800D02*
X0698800Y0566800D01*
X0698800Y0576800D02*
X0704800Y0576800D01*
X0704800Y0586800D02*
X0698800Y0586800D01*
X0778821Y0805537D02*
X0783063Y0809779D01*
X0775992Y0816850D02*
X0771750Y0812608D01*
X0764679Y0819679D02*
X0768921Y0823921D01*
X0761850Y0830992D02*
X0757608Y0826750D01*
X0750537Y0833821D02*
X0754779Y0838063D01*
X0536800Y0903800D02*
X0536800Y0909800D01*
X0526800Y0909800D02*
X0526800Y0903800D01*
X0516800Y0903800D02*
X0516800Y0909800D01*
X0506800Y0909800D02*
X0506800Y0903800D01*
X0496800Y0903800D02*
X0496800Y0909800D01*
X0283063Y0833821D02*
X0278821Y0838063D01*
X0271750Y0830992D02*
X0275992Y0826750D01*
X0268921Y0819679D02*
X0264679Y0823921D01*
X0257608Y0816850D02*
X0261850Y0812608D01*
X0254779Y0805537D02*
X0250537Y0809779D01*
X0178461Y0587745D02*
X0172461Y0587745D01*
X0172461Y0577745D02*
X0178461Y0577745D01*
X0178461Y0567745D02*
X0172461Y0567745D01*
X0172461Y0557745D02*
X0178461Y0557745D01*
X0178461Y0547745D02*
X0172461Y0547745D01*
D13*
X0238561Y0335972D03*
X0238561Y0329279D03*
X0438611Y0343690D03*
X0438611Y0350383D03*
X0435580Y0269359D03*
X0435580Y0262666D03*
X0456800Y0205146D03*
X0456800Y0198454D03*
X0600265Y0263375D03*
X0600265Y0270068D03*
X0605176Y0343432D03*
X0605176Y0350125D03*
X0686800Y0235146D03*
X0686800Y0228454D03*
X0341800Y0893454D03*
X0341800Y0900146D03*
X0576800Y0928454D03*
X0576800Y0935146D03*
D14*
X0513887Y0365737D03*
X0513887Y0357863D03*
X0509713Y0300737D03*
X0509713Y0292863D03*
X0454713Y0270737D03*
X0454713Y0262863D03*
X0454713Y0342863D03*
X0454713Y0350737D03*
X0619713Y0350737D03*
X0619713Y0342863D03*
X0619713Y0270737D03*
X0619713Y0262863D03*
D15*
X0626800Y0253414D03*
X0626800Y0280186D03*
X0626800Y0333414D03*
X0626800Y0360186D03*
X0516800Y0310186D03*
X0516800Y0283414D03*
X0461800Y0280186D03*
X0461800Y0253414D03*
X0461800Y0333414D03*
X0461800Y0360186D03*
X0506800Y0348414D03*
X0506800Y0375186D03*
D16*
X0536800Y0364200D02*
X0536800Y0359400D01*
X0546800Y0359400D02*
X0546800Y0364200D01*
X0556800Y0364200D02*
X0556800Y0359400D01*
X0566800Y0359400D02*
X0566800Y0364200D01*
X0576800Y0364200D02*
X0576800Y0359400D01*
X0586800Y0359400D02*
X0586800Y0364200D01*
X0596800Y0364200D02*
X0596800Y0359400D01*
X0606800Y0359400D02*
X0606800Y0364200D01*
X0606800Y0334200D02*
X0606800Y0329400D01*
X0596800Y0329400D02*
X0596800Y0334200D01*
X0586800Y0334200D02*
X0586800Y0329400D01*
X0576800Y0329400D02*
X0576800Y0334200D01*
X0566800Y0334200D02*
X0566800Y0329400D01*
X0556800Y0329400D02*
X0556800Y0334200D01*
X0546800Y0334200D02*
X0546800Y0329400D01*
X0536800Y0329400D02*
X0536800Y0334200D01*
X0536800Y0284200D02*
X0536800Y0279400D01*
X0546800Y0279400D02*
X0546800Y0284200D01*
X0556800Y0284200D02*
X0556800Y0279400D01*
X0566800Y0279400D02*
X0566800Y0284200D01*
X0576800Y0284200D02*
X0576800Y0279400D01*
X0586800Y0279400D02*
X0586800Y0284200D01*
X0596800Y0284200D02*
X0596800Y0279400D01*
X0606800Y0279400D02*
X0606800Y0284200D01*
X0606800Y0254200D02*
X0606800Y0249400D01*
X0596800Y0249400D02*
X0596800Y0254200D01*
X0586800Y0254200D02*
X0586800Y0249400D01*
X0576800Y0249400D02*
X0576800Y0254200D01*
X0566800Y0254200D02*
X0566800Y0249400D01*
X0556800Y0249400D02*
X0556800Y0254200D01*
X0546800Y0254200D02*
X0546800Y0249400D01*
X0536800Y0249400D02*
X0536800Y0254200D01*
X0532076Y0206129D02*
X0532076Y0201329D01*
X0522076Y0201329D02*
X0522076Y0206129D01*
X0502076Y0206129D02*
X0502076Y0201329D01*
X0441800Y0249400D02*
X0441800Y0254200D01*
X0431800Y0254200D02*
X0431800Y0249400D01*
X0421800Y0249400D02*
X0421800Y0254200D01*
X0411800Y0254200D02*
X0411800Y0249400D01*
X0401800Y0249400D02*
X0401800Y0254200D01*
X0391800Y0254200D02*
X0391800Y0249400D01*
X0381800Y0249400D02*
X0381800Y0254200D01*
X0371800Y0254200D02*
X0371800Y0249400D01*
X0391189Y0228403D02*
X0389706Y0223838D01*
X0408727Y0217657D02*
X0410210Y0222222D01*
X0419721Y0219132D02*
X0418238Y0214567D01*
X0421800Y0279400D02*
X0421800Y0284200D01*
X0411800Y0284200D02*
X0411800Y0279400D01*
X0401800Y0279400D02*
X0401800Y0284200D01*
X0391800Y0284200D02*
X0391800Y0279400D01*
X0381800Y0279400D02*
X0381800Y0284200D01*
X0371800Y0284200D02*
X0371800Y0279400D01*
X0371800Y0329400D02*
X0371800Y0334200D01*
X0381800Y0334200D02*
X0381800Y0329400D01*
X0391800Y0329400D02*
X0391800Y0334200D01*
X0401800Y0334200D02*
X0401800Y0329400D01*
X0411800Y0329400D02*
X0411800Y0334200D01*
X0421800Y0334200D02*
X0421800Y0329400D01*
X0431800Y0329400D02*
X0431800Y0334200D01*
X0441800Y0334200D02*
X0441800Y0329400D01*
X0441800Y0359400D02*
X0441800Y0364200D01*
X0431800Y0364200D02*
X0431800Y0359400D01*
X0421800Y0359400D02*
X0421800Y0364200D01*
X0411800Y0364200D02*
X0411800Y0359400D01*
X0401800Y0359400D02*
X0401800Y0364200D01*
X0391800Y0364200D02*
X0391800Y0359400D01*
X0381800Y0359400D02*
X0381800Y0364200D01*
X0371800Y0364200D02*
X0371800Y0359400D01*
X0431800Y0284200D02*
X0431800Y0279400D01*
X0441800Y0279400D02*
X0441800Y0284200D01*
X0316566Y0266185D02*
X0313745Y0262301D01*
X0305655Y0268179D02*
X0308476Y0272063D01*
X0292296Y0283818D02*
X0289475Y0279935D01*
X0233149Y0342571D02*
X0229266Y0339750D01*
X0223388Y0347840D02*
X0227271Y0350662D01*
X0215515Y0366842D02*
X0211632Y0364021D01*
X0177419Y0441465D02*
X0172854Y0439981D01*
X0169763Y0449492D02*
X0174328Y0450975D01*
X0168148Y0469996D02*
X0163583Y0468513D01*
X0155106Y0552469D02*
X0150306Y0552469D01*
X0150306Y0562469D02*
X0155106Y0562469D01*
X0155106Y0582469D02*
X0150306Y0582469D01*
X0168345Y0665060D02*
X0163780Y0666543D01*
X0166870Y0676054D02*
X0171435Y0674571D01*
X0177615Y0693592D02*
X0173050Y0695075D01*
X0236800Y0714400D02*
X0236800Y0719200D01*
X0246800Y0719200D02*
X0246800Y0714400D01*
X0256800Y0714400D02*
X0256800Y0719200D01*
X0266800Y0719200D02*
X0266800Y0714400D01*
X0276800Y0714400D02*
X0276800Y0719200D01*
X0286800Y0719200D02*
X0286800Y0714400D01*
X0296800Y0714400D02*
X0296800Y0719200D01*
X0306800Y0719200D02*
X0306800Y0714400D01*
X0316800Y0714400D02*
X0316800Y0719200D01*
X0326800Y0719200D02*
X0326800Y0714400D01*
X0336800Y0714400D02*
X0336800Y0719200D01*
X0346800Y0719200D02*
X0346800Y0714400D01*
X0356800Y0714400D02*
X0356800Y0719200D01*
X0366800Y0719200D02*
X0366800Y0714400D01*
X0376800Y0714400D02*
X0376800Y0719200D01*
X0386800Y0719200D02*
X0386800Y0714400D01*
X0396800Y0714400D02*
X0396800Y0719200D01*
X0406800Y0719200D02*
X0406800Y0714400D01*
X0416800Y0714400D02*
X0416800Y0719200D01*
X0426800Y0719200D02*
X0426800Y0714400D01*
X0300150Y0857156D02*
X0297328Y0861039D01*
X0289238Y0855161D02*
X0292060Y0851278D01*
X0316330Y0868911D02*
X0313509Y0872795D01*
X0390441Y0906811D02*
X0388958Y0911376D01*
X0398468Y0914467D02*
X0399952Y0909902D01*
X0418973Y0916082D02*
X0417490Y0920647D01*
X0501800Y0929557D02*
X0501800Y0934357D01*
X0511800Y0934357D02*
X0511800Y0929557D01*
X0531800Y0929557D02*
X0531800Y0934357D01*
X0613997Y0916948D02*
X0615481Y0921513D01*
X0624991Y0918423D02*
X0623508Y0913858D01*
X0642529Y0907677D02*
X0644012Y0912243D01*
X0717152Y0869620D02*
X0719973Y0873503D01*
X0728063Y0867625D02*
X0725242Y0863742D01*
X0741422Y0851986D02*
X0744244Y0855870D01*
X0795082Y0788850D02*
X0791199Y0786029D01*
X0797077Y0777938D02*
X0800960Y0780760D01*
X0812716Y0764579D02*
X0808833Y0761758D01*
X0736337Y0654957D02*
X0731772Y0653474D01*
X0734862Y0643963D02*
X0739427Y0645447D01*
X0745608Y0626425D02*
X0741042Y0624942D01*
X0728255Y0582469D02*
X0723455Y0582469D01*
X0723455Y0572469D02*
X0728255Y0572469D01*
X0728255Y0552469D02*
X0723455Y0552469D01*
X0741082Y0510351D02*
X0745647Y0508868D01*
X0742557Y0499357D02*
X0737992Y0500840D01*
X0731811Y0481819D02*
X0736376Y0480336D01*
X0809108Y0374322D02*
X0812991Y0371501D01*
X0807114Y0363411D02*
X0803230Y0366232D01*
X0791475Y0350052D02*
X0795358Y0347230D01*
X0742052Y0284330D02*
X0744873Y0280447D01*
X0736783Y0274569D02*
X0733962Y0278452D01*
X0717782Y0266697D02*
X0720603Y0262813D01*
X0643198Y0228403D02*
X0644682Y0223838D01*
X0635171Y0220748D02*
X0633688Y0225313D01*
X0614667Y0219132D02*
X0616150Y0214567D01*
X0215200Y0767978D02*
X0211317Y0770800D01*
X0217195Y0778890D02*
X0221078Y0776069D01*
X0232834Y0792249D02*
X0228951Y0795070D01*
D17*
X0666800Y0496800D03*
X0666800Y0486800D03*
X0666800Y0476800D03*
X0666800Y0466800D03*
X0676800Y0466800D03*
X0676800Y0476800D03*
X0676800Y0486800D03*
X0676800Y0496800D03*
X0686800Y0496800D03*
X0686800Y0486800D03*
X0686800Y0476800D03*
X0686800Y0466800D03*
X0696800Y0466800D03*
X0696800Y0476800D03*
X0696800Y0486800D03*
X0696800Y0496800D03*
D18*
X0581800Y0451800D03*
X0581800Y0441800D03*
X0581800Y0431800D03*
X0581800Y0421800D03*
X0581800Y0411800D03*
X0581800Y0401800D03*
X0581800Y0391800D03*
X0571800Y0391800D03*
X0561800Y0391800D03*
X0551800Y0391800D03*
X0541800Y0391800D03*
X0531800Y0391800D03*
X0521800Y0391800D03*
X0511800Y0391800D03*
X0501800Y0391800D03*
X0491800Y0391800D03*
X0481800Y0391800D03*
X0471800Y0391800D03*
X0461800Y0391800D03*
X0451800Y0391800D03*
X0461800Y0441800D03*
X0461800Y0451800D03*
X0471800Y0451800D03*
X0481800Y0451800D03*
X0481800Y0441800D03*
X0491800Y0441800D03*
X0491800Y0451800D03*
X0501800Y0451800D03*
X0501800Y0441800D03*
X0511800Y0431800D03*
X0511800Y0421800D03*
X0521800Y0421800D03*
X0521800Y0431800D03*
X0531800Y0431800D03*
X0531800Y0421800D03*
X0541800Y0421800D03*
X0541800Y0431800D03*
X0551800Y0431800D03*
X0551800Y0421800D03*
X0561800Y0421800D03*
X0561800Y0431800D03*
X0571800Y0431800D03*
X0571800Y0421800D03*
X0571800Y0451800D03*
X0561800Y0451800D03*
X0551800Y0451800D03*
X0541800Y0451800D03*
X0531800Y0451800D03*
X0521800Y0451800D03*
X0511800Y0451800D03*
X0541800Y0731800D03*
X0541800Y0741800D03*
X0541800Y0751800D03*
X0541800Y0761800D03*
X0541800Y0771800D03*
X0541800Y0781800D03*
X0541800Y0791800D03*
X0541800Y0801800D03*
X0541800Y0811800D03*
X0541800Y0821800D03*
X0541800Y0831800D03*
X0541800Y0841800D03*
X0541800Y0851800D03*
X0541800Y0861800D03*
X0591800Y0851800D03*
X0601800Y0851800D03*
X0601800Y0841800D03*
X0601800Y0831800D03*
X0601800Y0821800D03*
X0601800Y0811800D03*
X0601800Y0801800D03*
X0601800Y0791800D03*
X0601800Y0781800D03*
X0601800Y0771800D03*
X0601800Y0761800D03*
X0601800Y0751800D03*
X0601800Y0741800D03*
X0601800Y0731800D03*
X0591800Y0731800D03*
X0581800Y0731800D03*
X0581800Y0741800D03*
X0581800Y0751800D03*
X0581800Y0761800D03*
X0581800Y0771800D03*
X0581800Y0781800D03*
X0581800Y0791800D03*
X0581800Y0801800D03*
X0571800Y0801800D03*
X0571800Y0791800D03*
X0571800Y0781800D03*
X0571800Y0771800D03*
X0571800Y0761800D03*
X0571800Y0751800D03*
X0571800Y0741800D03*
X0571800Y0731800D03*
X0561800Y0731800D03*
X0551800Y0731800D03*
X0591800Y0811800D03*
X0591800Y0821800D03*
X0591800Y0831800D03*
X0466800Y0831800D03*
X0466800Y0821800D03*
X0466800Y0811800D03*
X0466800Y0801800D03*
X0466800Y0791800D03*
X0466800Y0781800D03*
X0466800Y0771800D03*
X0466800Y0761800D03*
X0466800Y0751800D03*
X0466800Y0741800D03*
X0466800Y0731800D03*
X0456800Y0731800D03*
X0446800Y0731800D03*
X0446800Y0741800D03*
X0446800Y0751800D03*
X0446800Y0761800D03*
X0446800Y0771800D03*
X0446800Y0781800D03*
X0446800Y0791800D03*
X0446800Y0801800D03*
X0436800Y0801800D03*
X0436800Y0791800D03*
X0436800Y0781800D03*
X0436800Y0771800D03*
X0436800Y0761800D03*
X0436800Y0751800D03*
X0436800Y0741800D03*
X0436800Y0731800D03*
X0426800Y0731800D03*
X0416800Y0731800D03*
X0406800Y0731800D03*
X0406800Y0741800D03*
X0406800Y0751800D03*
X0406800Y0761800D03*
X0406800Y0771800D03*
X0406800Y0781800D03*
X0406800Y0791800D03*
X0406800Y0801800D03*
X0406800Y0811800D03*
X0406800Y0821800D03*
X0406800Y0831800D03*
X0406800Y0841800D03*
X0406800Y0851800D03*
X0406800Y0861800D03*
X0456800Y0851800D03*
X0466800Y0851800D03*
X0466800Y0841800D03*
X0456800Y0831800D03*
X0456800Y0821800D03*
X0456800Y0811800D03*
D19*
X0377687Y0745469D03*
X0369813Y0745469D03*
X0361939Y0745469D03*
X0354065Y0745469D03*
X0346191Y0745469D03*
X0338317Y0745469D03*
X0330443Y0745469D03*
X0322569Y0745469D03*
X0314695Y0745469D03*
X0306821Y0745469D03*
X0306821Y0832083D03*
X0314695Y0832083D03*
X0322569Y0832083D03*
X0330443Y0832083D03*
X0338317Y0832083D03*
X0346191Y0832083D03*
X0354065Y0832083D03*
X0361939Y0832083D03*
X0369813Y0832083D03*
D20*
X0377687Y0832083D03*
D21*
X0444300Y0429300D03*
X0449300Y0429300D03*
X0454300Y0429300D03*
X0459300Y0429300D03*
X0464300Y0429300D03*
X0469300Y0429300D03*
X0474300Y0429300D03*
X0479300Y0429300D03*
X0484300Y0429300D03*
X0489300Y0429300D03*
X0489300Y0414300D03*
X0484300Y0414300D03*
X0479300Y0414300D03*
X0474300Y0414300D03*
X0469300Y0414300D03*
X0464300Y0414300D03*
X0459300Y0414300D03*
X0454300Y0414300D03*
X0449300Y0414300D03*
X0444300Y0414300D03*
D22*
X0481800Y0646800D03*
X0491800Y0646800D03*
X0501800Y0646800D03*
X0511800Y0646800D03*
X0521800Y0646800D03*
X0531800Y0646800D03*
X0541800Y0646800D03*
X0551800Y0646800D03*
X0561800Y0646800D03*
X0571800Y0646800D03*
D23*
X0260737Y0393887D03*
X0252863Y0393887D03*
D24*
X0243414Y0386800D03*
X0270186Y0386800D03*
D25*
X0646800Y0596800D03*
X0646800Y0606800D03*
X0646800Y0616800D03*
X0656800Y0616800D03*
X0656800Y0606800D03*
X0656800Y0596800D03*
D26*
X0738454Y0591800D03*
X0745146Y0591800D03*
X0753597Y0848317D03*
X0760290Y0848317D03*
X0788532Y0336519D03*
X0795225Y0336519D03*
X0210146Y0726800D03*
X0203454Y0726800D03*
X0155146Y0516800D03*
X0148454Y0516800D03*
D27*
X0196800Y0486800D03*
X0211800Y0471800D03*
X0221800Y0461800D03*
X0236800Y0446800D03*
X0266800Y0441800D03*
X0296800Y0446800D03*
X0311800Y0446800D03*
X0326800Y0436800D03*
X0336800Y0436800D03*
X0371800Y0406800D03*
X0411800Y0371800D03*
X0432556Y0377020D03*
X0431800Y0386800D03*
X0442444Y0385604D03*
X0441800Y0371800D03*
X0451800Y0371800D03*
X0461822Y0371208D03*
X0466800Y0366164D03*
X0481800Y0376800D03*
X0484904Y0372464D03*
X0500245Y0358582D03*
X0516800Y0346800D03*
X0513593Y0331706D03*
X0501800Y0316800D03*
X0481800Y0331800D03*
X0471686Y0321156D03*
X0448926Y0336328D03*
X0431997Y0351682D03*
X0421800Y0341800D03*
X0426800Y0316800D03*
X0411800Y0291800D03*
X0401800Y0311800D03*
X0396800Y0346800D03*
X0346800Y0331800D03*
X0309137Y0304243D03*
X0301800Y0296800D03*
X0346531Y0257559D03*
X0401800Y0266800D03*
X0429664Y0271481D03*
X0441800Y0291800D03*
X0476800Y0276800D03*
X0501800Y0251800D03*
X0496573Y0244648D03*
X0506800Y0236800D03*
X0511800Y0251800D03*
X0521800Y0241800D03*
X0537862Y0217927D03*
X0561800Y0266800D03*
X0576800Y0291800D03*
X0581800Y0296800D03*
X0591800Y0296800D03*
X0606800Y0291800D03*
X0594831Y0271800D03*
X0614162Y0251800D03*
X0636080Y0233110D03*
X0586800Y0241800D03*
X0631800Y0291800D03*
X0641800Y0316800D03*
X0626800Y0321800D03*
X0613375Y0333769D03*
X0596800Y0321800D03*
X0581800Y0321800D03*
X0576800Y0316800D03*
X0581800Y0341800D03*
X0596800Y0351800D03*
X0586800Y0371800D03*
X0576800Y0371800D03*
X0577085Y0382173D03*
X0591800Y0391800D03*
X0606800Y0371800D03*
X0621800Y0371800D03*
X0636800Y0411800D03*
X0636800Y0431800D03*
X0641800Y0471800D03*
X0641800Y0491800D03*
X0636800Y0491800D03*
X0636800Y0506800D03*
X0641800Y0506800D03*
X0641800Y0516800D03*
X0631800Y0516800D03*
X0601800Y0521800D03*
X0596800Y0491800D03*
X0571800Y0491800D03*
X0561800Y0481800D03*
X0551800Y0471800D03*
X0561800Y0461800D03*
X0560474Y0445701D03*
X0577774Y0446791D03*
X0591800Y0421800D03*
X0587713Y0417426D03*
X0566778Y0401274D03*
X0557274Y0371895D03*
X0537467Y0378830D03*
X0532360Y0368025D03*
X0521800Y0371800D03*
X0521800Y0376800D03*
X0531368Y0405379D03*
X0486726Y0455677D03*
X0496800Y0461800D03*
X0486800Y0471800D03*
X0486800Y0476800D03*
X0466831Y0456041D03*
X0456800Y0471800D03*
X0456800Y0476800D03*
X0431800Y0441800D03*
X0436800Y0426800D03*
X0466800Y0421800D03*
X0456800Y0396800D03*
X0506800Y0466800D03*
X0511800Y0516800D03*
X0511800Y0521800D03*
X0476800Y0521800D03*
X0476800Y0516800D03*
X0496800Y0556800D03*
X0496800Y0566800D03*
X0511800Y0571800D03*
X0511800Y0576800D03*
X0541800Y0591800D03*
X0541800Y0601800D03*
X0556800Y0576800D03*
X0571800Y0566800D03*
X0591800Y0596800D03*
X0596800Y0616800D03*
X0606800Y0676800D03*
X0601800Y0681800D03*
X0611800Y0691800D03*
X0606800Y0726800D03*
X0576800Y0726800D03*
X0576800Y0736800D03*
X0564449Y0736914D03*
X0558311Y0741610D03*
X0556800Y0761800D03*
X0556800Y0781800D03*
X0551800Y0816800D03*
X0526800Y0831800D03*
X0516800Y0846800D03*
X0526800Y0866800D03*
X0536800Y0866800D03*
X0521800Y0881800D03*
X0501800Y0891800D03*
X0491800Y0886800D03*
X0481800Y0881800D03*
X0481800Y0806800D03*
X0486800Y0796800D03*
X0461800Y0776800D03*
X0451800Y0786800D03*
X0456800Y0791800D03*
X0431800Y0786800D03*
X0421800Y0771800D03*
X0426800Y0766800D03*
X0421800Y0761800D03*
X0431618Y0737391D03*
X0449418Y0724612D03*
X0461800Y0724609D03*
X0461800Y0696800D03*
X0456800Y0691800D03*
X0466800Y0686800D03*
X0451800Y0676800D03*
X0441800Y0666800D03*
X0436800Y0671800D03*
X0431800Y0676800D03*
X0436800Y0681800D03*
X0421896Y0675279D03*
X0416800Y0666800D03*
X0411800Y0671800D03*
X0416800Y0696800D03*
X0416800Y0706800D03*
X0421800Y0711800D03*
X0406800Y0706800D03*
X0391800Y0706800D03*
X0396800Y0726800D03*
X0376800Y0666800D03*
X0351800Y0651800D03*
X0346800Y0616800D03*
X0346800Y0601800D03*
X0346800Y0576800D03*
X0316800Y0536800D03*
X0316800Y0486800D03*
X0396800Y0516800D03*
X0411800Y0571800D03*
X0416800Y0571800D03*
X0416800Y0581800D03*
X0396800Y0576800D03*
X0396800Y0586800D03*
X0446800Y0581800D03*
X0461800Y0601800D03*
X0466800Y0596800D03*
X0476800Y0576800D03*
X0476800Y0571800D03*
X0531800Y0676800D03*
X0531800Y0681800D03*
X0531800Y0686800D03*
X0536800Y0691800D03*
X0531800Y0696800D03*
X0551800Y0706800D03*
X0561800Y0691800D03*
X0571800Y0681800D03*
X0576800Y0676800D03*
X0576800Y0696800D03*
X0536800Y0726800D03*
X0506800Y0731800D03*
X0506800Y0741800D03*
X0506800Y0766800D03*
X0511800Y0771800D03*
X0516800Y0781800D03*
X0556800Y0856800D03*
X0561800Y0871800D03*
X0571800Y0891800D03*
X0581800Y0896800D03*
X0581800Y0881800D03*
X0596845Y0860207D03*
X0621800Y0851800D03*
X0626800Y0846800D03*
X0636800Y0846800D03*
X0636800Y0836800D03*
X0636800Y0861800D03*
X0626800Y0861800D03*
X0636800Y0886800D03*
X0651800Y0916800D03*
X0656800Y0931800D03*
X0641800Y0931800D03*
X0586800Y0921800D03*
X0576800Y0911800D03*
X0651800Y0761800D03*
X0711800Y0701800D03*
X0656800Y0641800D03*
X0691800Y0576800D03*
X0716446Y0542018D03*
X0711800Y0501800D03*
X0651800Y0491800D03*
X0781800Y0376800D03*
X0561800Y0346800D03*
X0448375Y0251800D03*
X0256800Y0376800D03*
X0251800Y0356800D03*
X0216800Y0541800D03*
X0216800Y0551800D03*
X0311800Y0636800D03*
X0311800Y0651800D03*
X0301800Y0686800D03*
X0305256Y0691792D03*
X0311800Y0701800D03*
X0321800Y0686800D03*
X0336800Y0706800D03*
X0361800Y0791800D03*
X0386800Y0826800D03*
X0386800Y0841800D03*
X0366800Y0891800D03*
X0356800Y0891800D03*
X0351800Y0891800D03*
X0331800Y0846800D03*
X0311800Y0836800D03*
X0258945Y0798841D03*
X0226800Y0696800D03*
X0221800Y0686800D03*
X0211800Y0676800D03*
X0206800Y0696800D03*
X0481800Y0691800D03*
X0721800Y0901800D03*
D28*
X0241052Y0403650D03*
D29*
X0446800Y0406800D03*
X0465619Y0403375D03*
X0475009Y0436479D03*
X0479241Y0436721D03*
X0559162Y0414438D03*
X0564613Y0409338D03*
D30*
X0534299Y0441211D03*
X0532026Y0444177D03*
X0516311Y0441120D03*
X0512026Y0444177D03*
M02*
