%
M48
M72
T01C0.01600
T02C0.01969
T03C0.02362
T04C0.02756
T05C0.03200
T06C0.03800
T07C0.03937
T08C0.04000
T09C0.15748
T10C0.19685
%
T01
X512026Y444177
X516311Y441120
X532026Y444177
X534299Y441211
T02
X559162Y414438
X564613Y409338
X479241Y436721
X475009Y436479
X465619Y403375
X446800Y406800
T03
X456800Y396800
X442444Y385604
X431800Y386800
X432556Y377020
X441800Y371800
X451800Y371800
X461822Y371208
X466800Y366164
X481800Y376800
X484904Y372464
X500245Y358582
X516800Y346800
X513593Y331706
X501800Y316800
X481800Y331800
X471686Y321156
X448926Y336328
X431997Y351682
X421800Y341800
X426800Y316800
X411800Y291800
X401800Y311800
X396800Y346800
X411800Y371800
X371800Y406800
X336800Y436800
X326800Y436800
X311800Y446800
X296800Y446800
X266800Y441800
X236800Y446800
X221800Y461800
X211800Y471800
X196800Y486800
X216800Y541800
X216800Y551800
X311800Y636800
X311800Y651800
X301800Y686800
X305256Y691792
X311800Y701800
X321800Y686800
X336800Y706800
X376800Y666800
X351800Y651800
X346800Y616800
X346800Y601800
X346800Y576800
X316800Y536800
X316800Y486800
X396800Y516800
X411800Y571800
X416800Y571800
X416800Y581800
X396800Y576800
X396800Y586800
X446800Y581800
X461800Y601800
X466800Y596800
X476800Y576800
X476800Y571800
X496800Y566800
X496800Y556800
X511800Y571800
X511800Y576800
X541800Y591800
X541800Y601800
X556800Y576800
X571800Y566800
X591800Y596800
X596800Y616800
X606800Y676800
X601800Y681800
X611800Y691800
X606800Y726800
X576800Y726800
X576800Y736800
X564449Y736914
X558311Y741610
X556800Y761800
X556800Y781800
X551800Y816800
X526800Y831800
X516800Y846800
X526800Y866800
X536800Y866800
X521800Y881800
X501800Y891800
X491800Y886800
X481800Y881800
X481800Y806800
X486800Y796800
X461800Y776800
X451800Y786800
X456800Y791800
X431800Y786800
X421800Y771800
X426800Y766800
X421800Y761800
X431618Y737391
X449418Y724612
X461800Y724609
X461800Y696800
X456800Y691800
X466800Y686800
X451800Y676800
X441800Y666800
X436800Y671800
X431800Y676800
X436800Y681800
X421896Y675279
X416800Y666800
X411800Y671800
X416800Y696800
X416800Y706800
X421800Y711800
X406800Y706800
X391800Y706800
X396800Y726800
X361800Y791800
X386800Y826800
X386800Y841800
X366800Y891800
X356800Y891800
X351800Y891800
X331800Y846800
X311800Y836800
X258945Y798841
X226800Y696800
X221800Y686800
X211800Y676800
X206800Y696800
X431800Y441800
X436800Y426800
X466800Y421800
X466831Y456041
X456800Y471800
X456800Y476800
X486800Y476800
X486800Y471800
X496800Y461800
X486726Y455677
X506800Y466800
X551800Y471800
X561800Y461800
X560474Y445701
X577774Y446791
X591800Y421800
X587713Y417426
X591800Y391800
X577085Y382173
X576800Y371800
X586800Y371800
X596800Y351800
X581800Y341800
X581800Y321800
X576800Y316800
X581800Y296800
X576800Y291800
X591800Y296800
X606800Y291800
X594831Y271800
X614162Y251800
X636080Y233110
X586800Y241800
X561800Y266800
X521800Y241800
X511800Y251800
X501800Y251800
X496573Y244648
X506800Y236800
X537862Y217927
X476800Y276800
X448375Y251800
X429664Y271481
X441800Y291800
X401800Y266800
X346531Y257559
X309137Y304243
X301800Y296800
X346800Y331800
X256800Y376800
X251800Y356800
X476800Y516800
X476800Y521800
X511800Y521800
X511800Y516800
X561800Y481800
X571800Y491800
X596800Y491800
X601800Y521800
X631800Y516800
X636800Y506800
X641800Y506800
X641800Y516800
X641800Y491800
X636800Y491800
X651800Y491800
X641800Y471800
X636800Y431800
X636800Y411800
X621800Y371800
X606800Y371800
X613375Y333769
X596800Y321800
X626800Y321800
X641800Y316800
X631800Y291800
X561800Y346800
X557274Y371895
X537467Y378830
X532360Y368025
X521800Y371800
X521800Y376800
X531368Y405379
X566778Y401274
X711800Y501800
X716446Y542018
X691800Y576800
X656800Y641800
X711800Y701800
X651800Y761800
X636800Y836800
X636800Y846800
X626800Y846800
X621800Y851800
X626800Y861800
X636800Y861800
X636800Y886800
X651800Y916800
X656800Y931800
X641800Y931800
X586800Y921800
X576800Y911800
X581800Y896800
X571800Y891800
X581800Y881800
X561800Y871800
X556800Y856800
X596845Y860207
X516800Y781800
X511800Y771800
X506800Y766800
X506800Y741800
X506800Y731800
X536800Y726800
X551800Y706800
X561800Y691800
X571800Y681800
X576800Y676800
X576800Y696800
X536800Y691800
X531800Y696800
X531800Y686800
X531800Y681800
X531800Y676800
X481800Y691800
X721800Y901800
X781800Y376800
T04
X377687Y745469
X369813Y745469
X361939Y745469
X354065Y745469
X346191Y745469
X338317Y745469
X330443Y745469
X322569Y745469
X314695Y745469
X306821Y745469
X306821Y832083
X314695Y832083
X322569Y832083
X330443Y832083
X338317Y832083
X346191Y832083
X354065Y832083
X361939Y832083
X369813Y832083
X377687Y832083
T05
X314920Y870853
X298739Y859097
X290649Y853219
X230892Y793660
X219137Y777479
X213259Y769389
X236800Y716800
X246800Y716800
X256800Y716800
X266800Y716800
X276800Y716800
X286800Y716800
X296800Y716800
X306800Y716800
X316800Y716800
X326800Y716800
X336800Y716800
X346800Y716800
X356800Y716800
X366800Y716800
X376800Y716800
X386800Y716800
X396800Y716800
X406800Y716800
X416800Y716800
X426800Y716800
X389700Y909094
X399210Y912184
X418231Y918364
X501800Y931957
X511800Y931957
X531800Y931957
X614739Y919231
X624249Y916140
X643271Y909960
X718562Y871562
X726653Y865684
X742833Y853928
X793141Y787439
X799019Y779349
X810774Y763169
X734055Y654215
X737145Y644705
X743325Y625684
X725855Y582469
X725855Y572469
X725855Y552469
X743364Y509609
X740274Y500099
X734094Y481077
X811050Y372912
X805172Y364821
X793416Y348641
X743463Y282388
X735373Y276511
X719192Y264755
X643940Y226120
X634429Y223030
X615408Y216850
X606800Y251800
X596800Y251800
X586800Y251800
X576800Y251800
X566800Y251800
X556800Y251800
X546800Y251800
X536800Y251800
X536800Y281800
X546800Y281800
X556800Y281800
X566800Y281800
X576800Y281800
X586800Y281800
X596800Y281800
X606800Y281800
X606800Y331800
X596800Y331800
X586800Y331800
X576800Y331800
X566800Y331800
X556800Y331800
X546800Y331800
X536800Y331800
X536800Y361800
X546800Y361800
X556800Y361800
X566800Y361800
X576800Y361800
X586800Y361800
X596800Y361800
X606800Y361800
X532076Y203729
X522076Y203729
X502076Y203729
X441800Y251800
X431800Y251800
X421800Y251800
X411800Y251800
X401800Y251800
X391800Y251800
X381800Y251800
X371800Y251800
X390448Y226120
X409469Y219940
X418979Y216850
X421800Y281800
X411800Y281800
X401800Y281800
X391800Y281800
X381800Y281800
X371800Y281800
X371800Y331800
X381800Y331800
X391800Y331800
X401800Y331800
X411800Y331800
X421800Y331800
X431800Y331800
X441800Y331800
X441800Y361800
X431800Y361800
X421800Y361800
X411800Y361800
X401800Y361800
X391800Y361800
X381800Y361800
X371800Y361800
X431800Y281800
X441800Y281800
X315156Y264243
X307066Y270121
X290885Y281877
X231207Y341161
X225329Y349251
X213574Y365431
X175136Y440723
X172046Y450234
X165866Y469255
X152706Y552469
X152706Y562469
X152706Y582469
X166062Y665802
X169153Y675312
X175333Y694334
T06
X406800Y731800
X406800Y741800
X406800Y751800
X406800Y761800
X406800Y771800
X406800Y781800
X406800Y791800
X406800Y801800
X406800Y811800
X406800Y821800
X406800Y831800
X406800Y841800
X406800Y851800
X406800Y861800
X456800Y851800
X466800Y851800
X466800Y841800
X466800Y831800
X466800Y821800
X466800Y811800
X466800Y801800
X466800Y791800
X466800Y781800
X466800Y771800
X466800Y761800
X466800Y751800
X466800Y741800
X466800Y731800
X456800Y731800
X446800Y731800
X446800Y741800
X446800Y751800
X446800Y761800
X446800Y771800
X446800Y781800
X446800Y791800
X446800Y801800
X436800Y801800
X436800Y791800
X436800Y781800
X436800Y771800
X436800Y761800
X436800Y751800
X436800Y741800
X436800Y731800
X426800Y731800
X416800Y731800
X456800Y811800
X456800Y821800
X456800Y831800
X541800Y831800
X541800Y821800
X541800Y811800
X541800Y801800
X541800Y791800
X541800Y781800
X541800Y771800
X541800Y761800
X541800Y751800
X541800Y741800
X541800Y731800
X551800Y731800
X561800Y731800
X571800Y731800
X571800Y741800
X571800Y751800
X571800Y761800
X571800Y771800
X571800Y781800
X571800Y791800
X571800Y801800
X581800Y801800
X581800Y791800
X581800Y781800
X581800Y771800
X581800Y761800
X581800Y751800
X581800Y741800
X581800Y731800
X591800Y731800
X601800Y731800
X601800Y741800
X601800Y751800
X601800Y761800
X601800Y771800
X601800Y781800
X601800Y791800
X601800Y801800
X601800Y811800
X601800Y821800
X601800Y831800
X601800Y841800
X601800Y851800
X591800Y851800
X591800Y831800
X591800Y821800
X591800Y811800
X541800Y841800
X541800Y851800
X541800Y861800
X541800Y451800
X531800Y451800
X521800Y451800
X511800Y451800
X501800Y451800
X501800Y441800
X491800Y441800
X491800Y451800
X481800Y451800
X481800Y441800
X471800Y451800
X461800Y451800
X461800Y441800
X461800Y391800
X451800Y391800
X471800Y391800
X481800Y391800
X491800Y391800
X501800Y391800
X511800Y391800
X521800Y391800
X531800Y391800
X541800Y391800
X551800Y391800
X561800Y391800
X571800Y391800
X581800Y391800
X581800Y401800
X581800Y411800
X581800Y421800
X581800Y431800
X581800Y441800
X581800Y451800
X571800Y451800
X561800Y451800
X551800Y451800
X551800Y431800
X551800Y421800
X561800Y421800
X561800Y431800
X571800Y431800
X571800Y421800
X541800Y421800
X541800Y431800
X531800Y431800
X531800Y421800
X521800Y421800
X521800Y431800
X511800Y431800
X511800Y421800
T07
X241052Y403650
T08
X276769Y302892
X269698Y309963
X262627Y317034
X255556Y324105
X248485Y331176
X246800Y416800
X236800Y416800
X256800Y416800
X266800Y416800
X276800Y416800
X286800Y416800
X296800Y416800
X306800Y416800
X316800Y416800
X326800Y416800
X336800Y416800
X346800Y416800
X356800Y416800
X366800Y416800
X376800Y416800
X386800Y416800
X396800Y416800
X406800Y416800
X416800Y416800
X426800Y416800
X496800Y226800
X506800Y226800
X516800Y226800
X526800Y226800
X536800Y226800
X666800Y466800
X666800Y476800
X666800Y486800
X666800Y496800
X676800Y496800
X676800Y486800
X676800Y476800
X676800Y466800
X686800Y466800
X686800Y476800
X686800Y486800
X686800Y496800
X696800Y496800
X696800Y486800
X696800Y476800
X696800Y466800
X701800Y546800
X701800Y556800
X701800Y566800
X701800Y576800
X701800Y586800
X656800Y596800
X656800Y606800
X656800Y616800
X646800Y616800
X646800Y606800
X646800Y596800
X571800Y646800
X561800Y646800
X551800Y646800
X541800Y646800
X531800Y646800
X521800Y646800
X511800Y646800
X501800Y646800
X491800Y646800
X481800Y646800
X280942Y835942
X273871Y828871
X266800Y821800
X259729Y814729
X252658Y807658
X175461Y587745
X175461Y577745
X175461Y567745
X175461Y557745
X175461Y547745
X496800Y906800
X506800Y906800
X516800Y906800
X526800Y906800
X536800Y906800
X752658Y835942
X759729Y828871
X766800Y821800
X773871Y814729
X780942Y807658
X781108Y330913
X774037Y323842
X766965Y316771
X759894Y309700
X752823Y302629
T09
X549259Y301383
T10
X756406Y449713
X756013Y685934
X162706Y725304
X162706Y410343
M30
