G75*
%MOIN*%
%OFA0B0*%
%FSLAX25Y25*%
%IPPOS*%
%LPD*%
%AMOC8*
5,1,8,0,0,1.08239X$1,22.5*
%
%ADD10R,0.05906X0.05118*%
%ADD11R,0.05118X0.05906*%
%ADD12R,0.03150X0.03543*%
%ADD13R,0.04331X0.05512*%
%ADD14R,0.04331X0.03937*%
D10*
X0561915Y0621914D03*
X0561915Y0628607D03*
X0436800Y0713454D03*
X0436800Y0720146D03*
X0476800Y0843454D03*
X0476800Y0850146D03*
X0611800Y0850146D03*
X0611800Y0843454D03*
D11*
X0353454Y0251800D03*
X0360146Y0251800D03*
X0373138Y0236295D03*
X0379831Y0236295D03*
X0388454Y0266800D03*
X0395146Y0266800D03*
X0390146Y0316800D03*
X0383454Y0316800D03*
X0360146Y0331800D03*
X0353454Y0331800D03*
X0383454Y0346800D03*
X0390146Y0346800D03*
X0463454Y0461800D03*
X0470146Y0461800D03*
X0548454Y0346800D03*
X0555146Y0346800D03*
X0555146Y0316800D03*
X0548454Y0316800D03*
X0525713Y0331706D03*
X0519020Y0331706D03*
X0548454Y0266800D03*
X0555146Y0266800D03*
X0555146Y0236800D03*
X0548454Y0236800D03*
X0525146Y0251800D03*
X0518454Y0251800D03*
X0430146Y0701800D03*
X0423454Y0701800D03*
D12*
X0310540Y0677863D03*
X0303060Y0677863D03*
X0306800Y0686131D03*
X0301800Y0446131D03*
X0298060Y0437863D03*
X0305540Y0437863D03*
D13*
X0707863Y0476800D03*
X0715737Y0476800D03*
X0715737Y0486800D03*
X0707863Y0486800D03*
D14*
X0310146Y0456800D03*
X0303454Y0456800D03*
X0305068Y0430934D03*
X0298375Y0430934D03*
X0303375Y0670855D03*
X0310068Y0670855D03*
X0305146Y0696800D03*
X0298454Y0696800D03*
M02*
