G75*
%MOIN*%
%OFA0B0*%
%FSLAX25Y25*%
%IPPOS*%
%LPD*%
%AMOC8*
5,1,8,0,0,1.08239X$1,22.5*
%
%ADD10C,0.00000*%
%ADD11C,0.00400*%
%ADD12C,0.00500*%
%ADD13C,0.00700*%
D10*
X0238561Y0328625D02*
X0238561Y0336625D01*
X0234561Y0332625D02*
X0242561Y0332625D01*
X0222391Y0349296D02*
X0222391Y0357296D01*
X0218391Y0353296D02*
X0226391Y0353296D01*
X0256800Y0382800D02*
X0256800Y0390800D01*
X0252800Y0386800D02*
X0260800Y0386800D01*
X0174501Y0454989D02*
X0166501Y0454989D01*
X0170501Y0450989D02*
X0170501Y0458989D01*
X0151800Y0512800D02*
X0151800Y0520800D01*
X0147800Y0516800D02*
X0155800Y0516800D01*
X0152706Y0563469D02*
X0152706Y0571469D01*
X0148706Y0567469D02*
X0156706Y0567469D01*
X0138230Y0576156D02*
X0135480Y0572186D01*
X0170698Y0676068D02*
X0170698Y0684068D01*
X0166698Y0680068D02*
X0174698Y0680068D01*
X0206800Y0722800D02*
X0206800Y0730800D01*
X0202800Y0726800D02*
X0210800Y0726800D01*
X0222076Y0777524D02*
X0222076Y0785524D01*
X0218076Y0781524D02*
X0226076Y0781524D01*
X0302784Y0858036D02*
X0302784Y0866036D01*
X0298784Y0862036D02*
X0306784Y0862036D01*
X0337800Y0896800D02*
X0345800Y0896800D01*
X0341800Y0892800D02*
X0341800Y0900800D01*
X0399965Y0913729D02*
X0407965Y0913729D01*
X0403965Y0909729D02*
X0403965Y0917729D01*
X0512800Y0931957D02*
X0520800Y0931957D01*
X0516800Y0927957D02*
X0516800Y0935957D01*
X0572800Y0931800D02*
X0580800Y0931800D01*
X0576800Y0927800D02*
X0576800Y0935800D01*
X0625005Y0914595D02*
X0633005Y0914595D01*
X0629005Y0910595D02*
X0629005Y0918595D01*
X0726698Y0862745D02*
X0734698Y0862745D01*
X0730698Y0858745D02*
X0730698Y0866745D01*
X0752944Y0848317D02*
X0760944Y0848317D01*
X0756944Y0844317D02*
X0756944Y0852317D01*
X0801957Y0779304D02*
X0801957Y0771304D01*
X0797957Y0775304D02*
X0805957Y0775304D01*
X0738690Y0643950D02*
X0738690Y0635950D01*
X0734690Y0639950D02*
X0742690Y0639950D01*
X0741800Y0595800D02*
X0741800Y0587800D01*
X0737800Y0591800D02*
X0745800Y0591800D01*
X0725855Y0571469D02*
X0725855Y0563469D01*
X0721855Y0567469D02*
X0729855Y0567469D01*
X0738729Y0499343D02*
X0738729Y0491343D01*
X0734729Y0495343D02*
X0742729Y0495343D01*
X0802233Y0364776D02*
X0802233Y0356776D01*
X0798233Y0360776D02*
X0806233Y0360776D01*
X0791879Y0340519D02*
X0791879Y0332519D01*
X0787879Y0336519D02*
X0795879Y0336519D01*
X0735328Y0273572D02*
X0727328Y0273572D01*
X0731328Y0269572D02*
X0731328Y0277572D01*
X0686800Y0235800D02*
X0686800Y0227800D01*
X0682800Y0231800D02*
X0690800Y0231800D01*
X0633674Y0221485D02*
X0625674Y0221485D01*
X0629674Y0217485D02*
X0629674Y0225485D01*
X0626800Y0262800D02*
X0626800Y0270800D01*
X0622800Y0266800D02*
X0630800Y0266800D01*
X0604265Y0266721D02*
X0596265Y0266721D01*
X0600265Y0262721D02*
X0600265Y0270721D01*
X0605176Y0342778D02*
X0605176Y0350778D01*
X0601176Y0346778D02*
X0609176Y0346778D01*
X0622800Y0346800D02*
X0630800Y0346800D01*
X0626800Y0342800D02*
X0626800Y0350800D01*
X0520800Y0296800D02*
X0512800Y0296800D01*
X0516800Y0292800D02*
X0516800Y0300800D01*
X0506800Y0357800D02*
X0506800Y0365800D01*
X0502800Y0361800D02*
X0510800Y0361800D01*
X0465800Y0346800D02*
X0457800Y0346800D01*
X0461800Y0342800D02*
X0461800Y0350800D01*
X0442611Y0347036D02*
X0434611Y0347036D01*
X0438611Y0343036D02*
X0438611Y0351036D01*
X0466800Y0417800D02*
X0466800Y0425800D01*
X0462800Y0421800D02*
X0470800Y0421800D01*
X0461800Y0270800D02*
X0461800Y0262800D01*
X0457800Y0266800D02*
X0465800Y0266800D01*
X0439580Y0266013D02*
X0431580Y0266013D01*
X0435580Y0262013D02*
X0435580Y0270013D01*
X0404713Y0225485D02*
X0404713Y0217485D01*
X0400713Y0221485D02*
X0408713Y0221485D01*
X0452800Y0201800D02*
X0460800Y0201800D01*
X0456800Y0197800D02*
X0456800Y0205800D01*
X0513076Y0203729D02*
X0521076Y0203729D01*
X0517076Y0199729D02*
X0517076Y0207729D01*
X0307020Y0273060D02*
X0299020Y0273060D01*
X0303020Y0269060D02*
X0303020Y0277060D01*
D11*
X0247365Y0330093D02*
X0246598Y0329325D01*
X0243528Y0329325D01*
X0242761Y0330093D01*
X0242761Y0331627D01*
X0243528Y0332395D01*
X0242761Y0333929D02*
X0245830Y0336999D01*
X0246598Y0336999D01*
X0247365Y0336231D01*
X0247365Y0334697D01*
X0246598Y0333929D01*
X0246598Y0332395D02*
X0247365Y0331627D01*
X0247365Y0330093D01*
X0242761Y0333929D02*
X0242761Y0336999D01*
X0243528Y0338533D02*
X0242761Y0339300D01*
X0242761Y0340835D01*
X0243528Y0341602D01*
X0246598Y0341602D01*
X0247365Y0340835D01*
X0247365Y0339300D01*
X0246598Y0338533D01*
X0245830Y0338533D01*
X0245063Y0339300D01*
X0245063Y0341602D01*
X0234365Y0337766D02*
X0229761Y0337766D01*
X0229761Y0339300D02*
X0229761Y0336231D01*
X0229761Y0334697D02*
X0229761Y0333929D01*
X0230528Y0333929D01*
X0230528Y0334697D01*
X0229761Y0334697D01*
X0230528Y0332395D02*
X0229761Y0331627D01*
X0229761Y0330093D01*
X0230528Y0329325D01*
X0233598Y0332395D01*
X0230528Y0332395D01*
X0233598Y0332395D02*
X0234365Y0331627D01*
X0234365Y0330093D01*
X0233598Y0329325D01*
X0230528Y0329325D01*
X0232830Y0336231D02*
X0234365Y0337766D01*
X0232830Y0340835D02*
X0230528Y0340835D01*
X0229761Y0341602D01*
X0229761Y0343904D01*
X0232830Y0343904D01*
X0232063Y0345439D02*
X0232063Y0346974D01*
X0234365Y0345439D02*
X0234365Y0348508D01*
X0234365Y0345439D02*
X0229761Y0345439D01*
X0248135Y0367000D02*
X0251204Y0367000D01*
X0252739Y0367000D02*
X0252739Y0371604D01*
X0251204Y0370069D02*
X0249669Y0371604D01*
X0249669Y0367000D01*
X0252739Y0367000D02*
X0255808Y0371604D01*
X0255808Y0367000D01*
X0257343Y0367767D02*
X0258110Y0367000D01*
X0259644Y0367000D01*
X0260412Y0367767D01*
X0260412Y0370837D01*
X0259644Y0371604D01*
X0258110Y0371604D01*
X0257343Y0370837D01*
X0161144Y0508000D02*
X0159610Y0508000D01*
X0158843Y0508767D01*
X0157308Y0508000D02*
X0154239Y0511069D01*
X0154239Y0511837D01*
X0155006Y0512604D01*
X0156541Y0512604D01*
X0157308Y0511837D01*
X0158843Y0511837D02*
X0159610Y0512604D01*
X0161144Y0512604D01*
X0161912Y0511837D01*
X0161912Y0508767D01*
X0161144Y0508000D01*
X0157308Y0508000D02*
X0154239Y0508000D01*
X0152704Y0508767D02*
X0151937Y0508000D01*
X0150402Y0508000D01*
X0149635Y0508767D01*
X0149635Y0509535D01*
X0150402Y0510302D01*
X0152704Y0510302D01*
X0152704Y0508767D01*
X0152704Y0510302D02*
X0151169Y0511837D01*
X0149635Y0512604D01*
X0152704Y0521000D02*
X0152704Y0525604D01*
X0149635Y0525604D01*
X0151169Y0523302D02*
X0152704Y0523302D01*
X0154239Y0524069D02*
X0154239Y0521000D01*
X0156541Y0521000D01*
X0157308Y0521767D01*
X0157308Y0524069D01*
X0158843Y0521000D02*
X0161912Y0521000D01*
X0163446Y0521000D02*
X0164214Y0521000D01*
X0164214Y0521767D01*
X0163446Y0521767D01*
X0163446Y0521000D01*
X0165748Y0521767D02*
X0166516Y0521000D01*
X0168050Y0521000D01*
X0168818Y0521767D01*
X0165748Y0524837D01*
X0165748Y0521767D01*
X0165748Y0524837D02*
X0166516Y0525604D01*
X0168050Y0525604D01*
X0168818Y0524837D01*
X0168818Y0521767D01*
X0161912Y0524069D02*
X0160377Y0525604D01*
X0160377Y0521000D01*
X0205402Y0718000D02*
X0206937Y0718000D01*
X0207704Y0718767D01*
X0204635Y0721837D01*
X0204635Y0718767D01*
X0205402Y0718000D01*
X0207704Y0718767D02*
X0207704Y0721837D01*
X0206937Y0722604D01*
X0205402Y0722604D01*
X0204635Y0721837D01*
X0209239Y0721837D02*
X0209239Y0721069D01*
X0210006Y0720302D01*
X0209239Y0719535D01*
X0209239Y0718767D01*
X0210006Y0718000D01*
X0211541Y0718000D01*
X0212308Y0718767D01*
X0213843Y0718767D02*
X0214610Y0718000D01*
X0216144Y0718000D01*
X0216912Y0718767D01*
X0216912Y0721837D01*
X0216144Y0722604D01*
X0214610Y0722604D01*
X0213843Y0721837D01*
X0212308Y0721837D02*
X0211541Y0722604D01*
X0210006Y0722604D01*
X0209239Y0721837D01*
X0210006Y0720302D02*
X0210773Y0720302D01*
X0211541Y0731000D02*
X0209239Y0731000D01*
X0209239Y0734069D01*
X0207704Y0733302D02*
X0206169Y0733302D01*
X0207704Y0735604D02*
X0204635Y0735604D01*
X0207704Y0735604D02*
X0207704Y0731000D01*
X0211541Y0731000D02*
X0212308Y0731767D01*
X0212308Y0734069D01*
X0213843Y0731000D02*
X0216912Y0731000D01*
X0218446Y0731000D02*
X0219214Y0731000D01*
X0219214Y0731767D01*
X0218446Y0731767D01*
X0218446Y0731000D01*
X0220748Y0731767D02*
X0221516Y0731000D01*
X0223050Y0731000D01*
X0223818Y0731767D01*
X0220748Y0734837D01*
X0220748Y0731767D01*
X0220748Y0734837D02*
X0221516Y0735604D01*
X0223050Y0735604D01*
X0223818Y0734837D01*
X0223818Y0731767D01*
X0216912Y0734069D02*
X0215377Y0735604D01*
X0215377Y0731000D01*
X0333767Y0886688D02*
X0333000Y0887456D01*
X0333000Y0888990D01*
X0333767Y0889757D01*
X0333767Y0891292D02*
X0333000Y0892059D01*
X0333000Y0893594D01*
X0333767Y0894361D01*
X0334535Y0894361D01*
X0335302Y0893594D01*
X0335302Y0892827D01*
X0335302Y0893594D02*
X0336069Y0894361D01*
X0336837Y0894361D01*
X0337604Y0893594D01*
X0337604Y0892059D01*
X0336837Y0891292D01*
X0336837Y0889757D02*
X0337604Y0888990D01*
X0337604Y0887456D01*
X0336837Y0886688D01*
X0333767Y0886688D01*
X0333000Y0895896D02*
X0333000Y0898965D01*
X0333000Y0897431D02*
X0337604Y0897431D01*
X0336069Y0895896D01*
X0346000Y0895896D02*
X0350604Y0895896D01*
X0350604Y0898965D01*
X0348302Y0897431D02*
X0348302Y0895896D01*
X0349069Y0894361D02*
X0346000Y0894361D01*
X0346000Y0892059D01*
X0346767Y0891292D01*
X0349069Y0891292D01*
X0346000Y0889757D02*
X0346000Y0886688D01*
X0346000Y0885154D02*
X0346000Y0884386D01*
X0346767Y0884386D01*
X0346767Y0885154D01*
X0346000Y0885154D01*
X0346767Y0882852D02*
X0346000Y0882084D01*
X0346000Y0880550D01*
X0346767Y0879782D01*
X0349837Y0882852D01*
X0346767Y0882852D01*
X0349837Y0882852D02*
X0350604Y0882084D01*
X0350604Y0880550D01*
X0349837Y0879782D01*
X0346767Y0879782D01*
X0349069Y0886688D02*
X0350604Y0888223D01*
X0346000Y0888223D01*
X0568000Y0922456D02*
X0568000Y0923990D01*
X0568767Y0924757D01*
X0568000Y0926292D02*
X0571069Y0929361D01*
X0571837Y0929361D01*
X0572604Y0928594D01*
X0572604Y0927059D01*
X0571837Y0926292D01*
X0571837Y0924757D02*
X0572604Y0923990D01*
X0572604Y0922456D01*
X0571837Y0921688D01*
X0568767Y0921688D01*
X0568000Y0922456D01*
X0568000Y0926292D02*
X0568000Y0929361D01*
X0568767Y0930896D02*
X0568000Y0931663D01*
X0568000Y0933198D01*
X0568767Y0933965D01*
X0570302Y0933965D01*
X0571069Y0933198D01*
X0571069Y0932431D01*
X0570302Y0930896D01*
X0572604Y0930896D01*
X0572604Y0933965D01*
X0581000Y0930896D02*
X0585604Y0930896D01*
X0585604Y0933965D01*
X0583302Y0932431D02*
X0583302Y0930896D01*
X0584069Y0929361D02*
X0581000Y0929361D01*
X0581000Y0927059D01*
X0581767Y0926292D01*
X0584069Y0926292D01*
X0581000Y0924757D02*
X0581000Y0921688D01*
X0581000Y0920154D02*
X0581000Y0919386D01*
X0581767Y0919386D01*
X0581767Y0920154D01*
X0581000Y0920154D01*
X0581767Y0917852D02*
X0581000Y0917084D01*
X0581000Y0915550D01*
X0581767Y0914782D01*
X0584837Y0917852D01*
X0581767Y0917852D01*
X0584837Y0917852D02*
X0585604Y0917084D01*
X0585604Y0915550D01*
X0584837Y0914782D01*
X0581767Y0914782D01*
X0584069Y0921688D02*
X0585604Y0923223D01*
X0581000Y0923223D01*
X0741061Y0844121D02*
X0744130Y0844121D01*
X0744130Y0839517D01*
X0745665Y0839517D02*
X0745665Y0842587D01*
X0744130Y0841819D02*
X0742595Y0841819D01*
X0745665Y0839517D02*
X0747967Y0839517D01*
X0748734Y0840285D01*
X0748734Y0842587D01*
X0751803Y0844121D02*
X0751803Y0839517D01*
X0750269Y0839517D02*
X0753338Y0839517D01*
X0754873Y0839517D02*
X0755640Y0839517D01*
X0755640Y0840285D01*
X0754873Y0840285D01*
X0754873Y0839517D01*
X0757174Y0840285D02*
X0757942Y0839517D01*
X0759476Y0839517D01*
X0760244Y0840285D01*
X0757174Y0843354D01*
X0757174Y0840285D01*
X0757174Y0843354D02*
X0757942Y0844121D01*
X0759476Y0844121D01*
X0760244Y0843354D01*
X0760244Y0840285D01*
X0753338Y0842587D02*
X0751803Y0844121D01*
X0751036Y0852517D02*
X0747967Y0855587D01*
X0747967Y0856354D01*
X0748734Y0857121D01*
X0750269Y0857121D01*
X0751036Y0856354D01*
X0752571Y0856354D02*
X0752571Y0855587D01*
X0753338Y0854819D01*
X0752571Y0854052D01*
X0752571Y0853285D01*
X0753338Y0852517D01*
X0754873Y0852517D01*
X0755640Y0853285D01*
X0757174Y0853285D02*
X0757942Y0852517D01*
X0759476Y0852517D01*
X0760244Y0853285D01*
X0760244Y0856354D01*
X0759476Y0857121D01*
X0757942Y0857121D01*
X0757174Y0856354D01*
X0755640Y0856354D02*
X0754873Y0857121D01*
X0753338Y0857121D01*
X0752571Y0856354D01*
X0753338Y0854819D02*
X0754105Y0854819D01*
X0751036Y0852517D02*
X0747967Y0852517D01*
X0744333Y0600604D02*
X0745100Y0599837D01*
X0745100Y0596767D01*
X0744333Y0596000D01*
X0742798Y0596000D01*
X0742031Y0596767D01*
X0740496Y0596000D02*
X0737427Y0599069D01*
X0737427Y0599837D01*
X0738194Y0600604D01*
X0739729Y0600604D01*
X0740496Y0599837D01*
X0742031Y0599837D02*
X0742798Y0600604D01*
X0744333Y0600604D01*
X0740496Y0596000D02*
X0737427Y0596000D01*
X0735892Y0598302D02*
X0732823Y0598302D01*
X0733590Y0600604D02*
X0735892Y0598302D01*
X0733590Y0596000D02*
X0733590Y0600604D01*
X0736659Y0587604D02*
X0736659Y0583000D01*
X0735125Y0583000D02*
X0738194Y0583000D01*
X0739729Y0583000D02*
X0740496Y0583000D01*
X0740496Y0583767D01*
X0739729Y0583767D01*
X0739729Y0583000D01*
X0742031Y0583767D02*
X0742798Y0583000D01*
X0744333Y0583000D01*
X0745100Y0583767D01*
X0742031Y0586837D01*
X0742031Y0583767D01*
X0745100Y0583767D02*
X0745100Y0586837D01*
X0744333Y0587604D01*
X0742798Y0587604D01*
X0742031Y0586837D01*
X0738194Y0586069D02*
X0736659Y0587604D01*
X0733590Y0586069D02*
X0733590Y0583767D01*
X0732823Y0583000D01*
X0730521Y0583000D01*
X0730521Y0586069D01*
X0728986Y0585302D02*
X0727452Y0585302D01*
X0728986Y0587604D02*
X0725917Y0587604D01*
X0728986Y0587604D02*
X0728986Y0583000D01*
X0600980Y0362661D02*
X0600980Y0359592D01*
X0596376Y0359592D01*
X0596376Y0358057D02*
X0599446Y0358057D01*
X0598678Y0359592D02*
X0598678Y0361126D01*
X0596376Y0358057D02*
X0596376Y0355755D01*
X0597144Y0354988D01*
X0599446Y0354988D01*
X0600980Y0351919D02*
X0596376Y0351919D01*
X0596376Y0353453D02*
X0596376Y0350384D01*
X0596376Y0348849D02*
X0596376Y0348082D01*
X0597144Y0348082D01*
X0597144Y0348849D01*
X0596376Y0348849D01*
X0597144Y0346547D02*
X0596376Y0345780D01*
X0596376Y0344245D01*
X0597144Y0343478D01*
X0600213Y0346547D01*
X0597144Y0346547D01*
X0597144Y0343478D02*
X0600213Y0343478D01*
X0600980Y0344245D01*
X0600980Y0345780D01*
X0600213Y0346547D01*
X0599446Y0350384D02*
X0600980Y0351919D01*
X0609376Y0350384D02*
X0610144Y0351151D01*
X0610911Y0351151D01*
X0611678Y0350384D01*
X0611678Y0348082D01*
X0610144Y0348082D01*
X0609376Y0348849D01*
X0609376Y0350384D01*
X0611678Y0348082D02*
X0613213Y0349617D01*
X0613980Y0351151D01*
X0613213Y0346547D02*
X0613980Y0345780D01*
X0613980Y0344245D01*
X0613213Y0343478D01*
X0610144Y0343478D01*
X0609376Y0344245D01*
X0609376Y0345780D01*
X0610144Y0346547D01*
X0642000Y0346975D02*
X0642000Y0348510D01*
X0642767Y0349277D01*
X0643535Y0349277D01*
X0644302Y0348510D01*
X0644302Y0346208D01*
X0642767Y0346208D01*
X0642000Y0346975D01*
X0642000Y0344673D02*
X0646604Y0344673D01*
X0644302Y0346208D02*
X0645837Y0347742D01*
X0646604Y0349277D01*
X0642000Y0344673D02*
X0646604Y0341604D01*
X0642000Y0341604D01*
X0642767Y0340069D02*
X0642000Y0339302D01*
X0642000Y0337767D01*
X0642767Y0337000D01*
X0645837Y0337000D01*
X0646604Y0337767D01*
X0646604Y0339302D01*
X0645837Y0340069D01*
X0596068Y0282604D02*
X0596068Y0279535D01*
X0591465Y0279535D01*
X0591465Y0278000D02*
X0594534Y0278000D01*
X0593767Y0279535D02*
X0593767Y0281070D01*
X0591465Y0278000D02*
X0591465Y0275698D01*
X0592232Y0274931D01*
X0594534Y0274931D01*
X0596068Y0271862D02*
X0591465Y0271862D01*
X0591465Y0273396D02*
X0591465Y0270327D01*
X0591465Y0268792D02*
X0591465Y0268025D01*
X0592232Y0268025D01*
X0592232Y0268792D01*
X0591465Y0268792D01*
X0592232Y0266491D02*
X0591465Y0265723D01*
X0591465Y0264189D01*
X0592232Y0263421D01*
X0595301Y0266491D01*
X0592232Y0266491D01*
X0595301Y0266491D02*
X0596068Y0265723D01*
X0596068Y0264189D01*
X0595301Y0263421D01*
X0592232Y0263421D01*
X0594534Y0270327D02*
X0596068Y0271862D01*
X0604465Y0270327D02*
X0604465Y0268792D01*
X0605232Y0268025D01*
X0605232Y0266491D02*
X0604465Y0265723D01*
X0604465Y0264189D01*
X0605232Y0263421D01*
X0608301Y0263421D01*
X0609068Y0264189D01*
X0609068Y0265723D01*
X0608301Y0266491D01*
X0609068Y0268025D02*
X0606767Y0268025D01*
X0607534Y0269560D01*
X0607534Y0270327D01*
X0606767Y0271094D01*
X0605232Y0271094D01*
X0604465Y0270327D01*
X0609068Y0271094D02*
X0609068Y0268025D01*
X0642000Y0268510D02*
X0642000Y0266975D01*
X0642767Y0266208D01*
X0644302Y0266208D02*
X0645069Y0267742D01*
X0645069Y0268510D01*
X0644302Y0269277D01*
X0642767Y0269277D01*
X0642000Y0268510D01*
X0644302Y0266208D02*
X0646604Y0266208D01*
X0646604Y0269277D01*
X0646604Y0264673D02*
X0642000Y0264673D01*
X0646604Y0261604D01*
X0642000Y0261604D01*
X0642767Y0260069D02*
X0642000Y0259302D01*
X0642000Y0257767D01*
X0642767Y0257000D01*
X0645837Y0257000D01*
X0646604Y0257767D01*
X0646604Y0259302D01*
X0645837Y0260069D01*
X0678000Y0244614D02*
X0682604Y0244614D01*
X0682604Y0247683D01*
X0680302Y0246148D02*
X0680302Y0244614D01*
X0681069Y0243079D02*
X0678000Y0243079D01*
X0678000Y0240777D01*
X0678767Y0240010D01*
X0681069Y0240010D01*
X0678000Y0238475D02*
X0678000Y0235406D01*
X0678000Y0236941D02*
X0682604Y0236941D01*
X0681069Y0235406D01*
X0678767Y0233871D02*
X0678000Y0233871D01*
X0678000Y0233104D01*
X0678767Y0233104D01*
X0678767Y0233871D01*
X0678767Y0231569D02*
X0678000Y0230802D01*
X0678000Y0229267D01*
X0678767Y0228500D01*
X0681837Y0231569D01*
X0678767Y0231569D01*
X0678767Y0228500D02*
X0681837Y0228500D01*
X0682604Y0229267D01*
X0682604Y0230802D01*
X0681837Y0231569D01*
X0691000Y0230802D02*
X0691767Y0231569D01*
X0691000Y0230802D02*
X0691000Y0229267D01*
X0691767Y0228500D01*
X0694837Y0228500D01*
X0695604Y0229267D01*
X0695604Y0230802D01*
X0694837Y0231569D01*
X0694837Y0233104D02*
X0695604Y0233871D01*
X0695604Y0235406D01*
X0694837Y0236173D01*
X0694069Y0236173D01*
X0691000Y0233104D01*
X0691000Y0236173D01*
X0691767Y0237708D02*
X0692535Y0237708D01*
X0693302Y0238475D01*
X0693302Y0240010D01*
X0692535Y0240777D01*
X0691767Y0240777D01*
X0691000Y0240010D01*
X0691000Y0238475D01*
X0691767Y0237708D01*
X0693302Y0238475D02*
X0694069Y0237708D01*
X0694837Y0237708D01*
X0695604Y0238475D01*
X0695604Y0240010D01*
X0694837Y0240777D01*
X0694069Y0240777D01*
X0693302Y0240010D01*
X0775996Y0332323D02*
X0779065Y0332323D01*
X0779065Y0327719D01*
X0780600Y0327719D02*
X0780600Y0330788D01*
X0779065Y0330021D02*
X0777530Y0330021D01*
X0780600Y0327719D02*
X0782902Y0327719D01*
X0783669Y0328486D01*
X0783669Y0330788D01*
X0785203Y0327719D02*
X0788273Y0327719D01*
X0789807Y0327719D02*
X0790575Y0327719D01*
X0790575Y0328486D01*
X0789807Y0328486D01*
X0789807Y0327719D01*
X0792109Y0328486D02*
X0792877Y0327719D01*
X0794411Y0327719D01*
X0795179Y0328486D01*
X0792109Y0331556D01*
X0792109Y0328486D01*
X0792109Y0331556D02*
X0792877Y0332323D01*
X0794411Y0332323D01*
X0795179Y0331556D01*
X0795179Y0328486D01*
X0788273Y0330788D02*
X0786738Y0332323D01*
X0786738Y0327719D01*
X0785971Y0340719D02*
X0785971Y0341486D01*
X0782902Y0344556D01*
X0782902Y0345323D01*
X0785971Y0345323D01*
X0787505Y0344556D02*
X0788273Y0345323D01*
X0789807Y0345323D01*
X0790575Y0344556D01*
X0792109Y0344556D02*
X0792877Y0345323D01*
X0794411Y0345323D01*
X0795179Y0344556D01*
X0795179Y0341486D01*
X0794411Y0340719D01*
X0792877Y0340719D01*
X0792109Y0341486D01*
X0790575Y0340719D02*
X0787505Y0343788D01*
X0787505Y0344556D01*
X0787505Y0340719D02*
X0790575Y0340719D01*
X0536604Y0307718D02*
X0536604Y0305416D01*
X0532000Y0305416D01*
X0533535Y0305416D02*
X0533535Y0307718D01*
X0534302Y0308485D01*
X0535837Y0308485D01*
X0536604Y0307718D01*
X0533535Y0306950D02*
X0532000Y0308485D01*
X0532767Y0303881D02*
X0535837Y0303881D01*
X0536604Y0303114D01*
X0536604Y0301579D01*
X0535837Y0300812D01*
X0532767Y0300812D01*
X0532000Y0301579D01*
X0532000Y0303114D01*
X0532767Y0303881D01*
X0536604Y0299277D02*
X0536604Y0296208D01*
X0536604Y0297742D02*
X0532000Y0297742D01*
X0532767Y0294673D02*
X0535837Y0294673D01*
X0536604Y0293906D01*
X0536604Y0292371D01*
X0535837Y0291604D01*
X0532767Y0291604D01*
X0532000Y0292371D01*
X0532000Y0293906D01*
X0532767Y0294673D01*
X0532000Y0290069D02*
X0536604Y0290069D01*
X0535069Y0288535D01*
X0536604Y0287000D01*
X0532000Y0287000D01*
X0491604Y0325961D02*
X0490069Y0327495D01*
X0491604Y0329030D01*
X0487000Y0329030D01*
X0487767Y0330565D02*
X0487000Y0331332D01*
X0487000Y0332867D01*
X0487767Y0333634D01*
X0490837Y0333634D01*
X0491604Y0332867D01*
X0491604Y0331332D01*
X0490837Y0330565D01*
X0487767Y0330565D01*
X0487000Y0325961D02*
X0491604Y0325961D01*
X0491604Y0335169D02*
X0491604Y0338238D01*
X0491604Y0336703D02*
X0487000Y0336703D01*
X0487767Y0339772D02*
X0487000Y0340540D01*
X0487000Y0342074D01*
X0487767Y0342842D01*
X0490837Y0342842D01*
X0491604Y0342074D01*
X0491604Y0340540D01*
X0490837Y0339772D01*
X0487767Y0339772D01*
X0487000Y0344376D02*
X0491604Y0344376D01*
X0491604Y0346678D01*
X0490837Y0347446D01*
X0489302Y0347446D01*
X0488535Y0346678D01*
X0488535Y0344376D01*
X0488535Y0345911D02*
X0487000Y0347446D01*
X0487000Y0348980D02*
X0491604Y0348980D01*
X0491604Y0351282D01*
X0490837Y0352050D01*
X0489302Y0352050D01*
X0488535Y0351282D01*
X0488535Y0348980D01*
X0487767Y0353584D02*
X0490837Y0353584D01*
X0491604Y0354352D01*
X0491604Y0355886D01*
X0490837Y0356653D01*
X0487767Y0356653D01*
X0487000Y0355886D01*
X0487000Y0354352D01*
X0487767Y0353584D01*
X0487000Y0358188D02*
X0488535Y0359723D01*
X0487000Y0361257D01*
X0491604Y0361257D01*
X0491604Y0362792D02*
X0487000Y0362792D01*
X0487000Y0365861D01*
X0487000Y0367396D02*
X0491604Y0367396D01*
X0491604Y0369698D01*
X0490837Y0370465D01*
X0489302Y0370465D01*
X0488535Y0369698D01*
X0488535Y0367396D01*
X0488535Y0368931D02*
X0487000Y0370465D01*
X0491604Y0365861D02*
X0491604Y0362792D01*
X0489302Y0362792D02*
X0489302Y0364327D01*
X0491604Y0358188D02*
X0487000Y0358188D01*
X0481604Y0348510D02*
X0479302Y0346208D01*
X0479302Y0349277D01*
X0477000Y0348510D02*
X0481604Y0348510D01*
X0481604Y0344673D02*
X0477000Y0344673D01*
X0481604Y0341604D01*
X0477000Y0341604D01*
X0477767Y0340069D02*
X0477000Y0339302D01*
X0477000Y0337767D01*
X0477767Y0337000D01*
X0480837Y0337000D01*
X0481604Y0337767D01*
X0481604Y0339302D01*
X0480837Y0340069D01*
X0447415Y0344504D02*
X0446648Y0343736D01*
X0443578Y0343736D01*
X0442811Y0344504D01*
X0442811Y0346038D01*
X0443578Y0346805D01*
X0445113Y0348340D02*
X0445113Y0351409D01*
X0447415Y0350642D02*
X0445113Y0348340D01*
X0446648Y0346805D02*
X0447415Y0346038D01*
X0447415Y0344504D01*
X0447415Y0350642D02*
X0442811Y0350642D01*
X0434415Y0352177D02*
X0429811Y0352177D01*
X0429811Y0353711D02*
X0429811Y0350642D01*
X0429811Y0349107D02*
X0429811Y0348340D01*
X0430578Y0348340D01*
X0430578Y0349107D01*
X0429811Y0349107D01*
X0430578Y0346805D02*
X0429811Y0346038D01*
X0429811Y0344504D01*
X0430578Y0343736D01*
X0433648Y0346805D01*
X0430578Y0346805D01*
X0430578Y0343736D02*
X0433648Y0343736D01*
X0434415Y0344504D01*
X0434415Y0346038D01*
X0433648Y0346805D01*
X0432880Y0350642D02*
X0434415Y0352177D01*
X0432880Y0355246D02*
X0430578Y0355246D01*
X0429811Y0356013D01*
X0429811Y0358315D01*
X0432880Y0358315D01*
X0432113Y0359850D02*
X0432113Y0361385D01*
X0434415Y0359850D02*
X0434415Y0362919D01*
X0434415Y0359850D02*
X0429811Y0359850D01*
X0431383Y0281896D02*
X0431383Y0278826D01*
X0426780Y0278826D01*
X0426780Y0277292D02*
X0429849Y0277292D01*
X0429081Y0278826D02*
X0429081Y0280361D01*
X0426780Y0277292D02*
X0426780Y0274990D01*
X0427547Y0274222D01*
X0429849Y0274222D01*
X0431383Y0271153D02*
X0426780Y0271153D01*
X0426780Y0269618D02*
X0426780Y0272688D01*
X0429849Y0269618D02*
X0431383Y0271153D01*
X0427547Y0268084D02*
X0426780Y0268084D01*
X0426780Y0267317D01*
X0427547Y0267317D01*
X0427547Y0268084D01*
X0427547Y0265782D02*
X0426780Y0265015D01*
X0426780Y0263480D01*
X0427547Y0262713D01*
X0430616Y0265782D01*
X0427547Y0265782D01*
X0430616Y0265782D02*
X0431383Y0265015D01*
X0431383Y0263480D01*
X0430616Y0262713D01*
X0427547Y0262713D01*
X0439780Y0263480D02*
X0439780Y0265015D01*
X0440547Y0265782D01*
X0440547Y0267317D02*
X0439780Y0268084D01*
X0439780Y0269618D01*
X0440547Y0270386D01*
X0441314Y0270386D01*
X0442081Y0269618D01*
X0442081Y0268851D01*
X0442081Y0269618D02*
X0442849Y0270386D01*
X0443616Y0270386D01*
X0444383Y0269618D01*
X0444383Y0268084D01*
X0443616Y0267317D01*
X0443616Y0265782D02*
X0444383Y0265015D01*
X0444383Y0263480D01*
X0443616Y0262713D01*
X0440547Y0262713D01*
X0439780Y0263480D01*
X0477000Y0264673D02*
X0481604Y0264673D01*
X0480837Y0266208D02*
X0481604Y0266975D01*
X0481604Y0268510D01*
X0480837Y0269277D01*
X0480069Y0269277D01*
X0479302Y0268510D01*
X0478535Y0269277D01*
X0477767Y0269277D01*
X0477000Y0268510D01*
X0477000Y0266975D01*
X0477767Y0266208D01*
X0477000Y0264673D02*
X0481604Y0261604D01*
X0477000Y0261604D01*
X0477767Y0260069D02*
X0477000Y0259302D01*
X0477000Y0257767D01*
X0477767Y0257000D01*
X0480837Y0257000D01*
X0481604Y0257767D01*
X0481604Y0259302D01*
X0480837Y0260069D01*
X0479302Y0267742D02*
X0479302Y0268510D01*
X0452604Y0217683D02*
X0452604Y0214614D01*
X0448000Y0214614D01*
X0448000Y0213079D02*
X0451069Y0213079D01*
X0450302Y0214614D02*
X0450302Y0216148D01*
X0448000Y0213079D02*
X0448000Y0210777D01*
X0448767Y0210010D01*
X0451069Y0210010D01*
X0448000Y0208475D02*
X0448000Y0205406D01*
X0448000Y0206941D02*
X0452604Y0206941D01*
X0451069Y0205406D01*
X0448767Y0203871D02*
X0448000Y0203871D01*
X0448000Y0203104D01*
X0448767Y0203104D01*
X0448767Y0203871D01*
X0448767Y0201569D02*
X0448000Y0200802D01*
X0448000Y0199267D01*
X0448767Y0198500D01*
X0451837Y0201569D01*
X0448767Y0201569D01*
X0448767Y0198500D02*
X0451837Y0198500D01*
X0452604Y0199267D01*
X0452604Y0200802D01*
X0451837Y0201569D01*
X0461000Y0200802D02*
X0461767Y0201569D01*
X0461000Y0200802D02*
X0461000Y0199267D01*
X0461767Y0198500D01*
X0464837Y0198500D01*
X0465604Y0199267D01*
X0465604Y0200802D01*
X0464837Y0201569D01*
X0464837Y0203104D02*
X0465604Y0203871D01*
X0465604Y0205406D01*
X0464837Y0206173D01*
X0464069Y0206173D01*
X0461000Y0203104D01*
X0461000Y0206173D01*
X0461767Y0207708D02*
X0461000Y0208475D01*
X0461000Y0210010D01*
X0461767Y0210777D01*
X0462535Y0210777D01*
X0463302Y0210010D01*
X0463302Y0209242D01*
X0463302Y0210010D02*
X0464069Y0210777D01*
X0464837Y0210777D01*
X0465604Y0210010D01*
X0465604Y0208475D01*
X0464837Y0207708D01*
D12*
X0290464Y0271987D02*
X0282502Y0277772D01*
X0291758Y0290513D01*
X0299721Y0284728D01*
X0315646Y0273157D01*
X0323609Y0267372D01*
X0314353Y0254631D01*
X0306390Y0260417D01*
X0290464Y0271987D01*
X0290403Y0271734D01*
X0290349Y0271480D01*
X0290300Y0271224D01*
X0290258Y0270967D01*
X0290223Y0270710D01*
X0290194Y0270451D01*
X0290171Y0270192D01*
X0290154Y0269932D01*
X0290144Y0269672D01*
X0290140Y0269412D01*
X0290143Y0269152D01*
X0290152Y0268892D01*
X0290167Y0268632D01*
X0290189Y0268373D01*
X0290217Y0268115D01*
X0290251Y0267857D01*
X0290292Y0267600D01*
X0290339Y0267344D01*
X0290392Y0267089D01*
X0290452Y0266836D01*
X0290517Y0266584D01*
X0290589Y0266334D01*
X0290667Y0266086D01*
X0290751Y0265840D01*
X0290841Y0265596D01*
X0290937Y0265354D01*
X0291039Y0265114D01*
X0291147Y0264878D01*
X0291260Y0264644D01*
X0291380Y0264412D01*
X0291505Y0264184D01*
X0291635Y0263959D01*
X0291771Y0263737D01*
X0291912Y0263519D01*
X0292059Y0263304D01*
X0292211Y0263093D01*
X0292368Y0262885D01*
X0292530Y0262682D01*
X0292697Y0262482D01*
X0292869Y0262287D01*
X0293045Y0262096D01*
X0293227Y0261909D01*
X0293412Y0261727D01*
X0293603Y0261550D01*
X0293797Y0261377D01*
X0293996Y0261209D01*
X0294198Y0261046D01*
X0294405Y0260888D01*
X0294616Y0260735D01*
X0294830Y0260587D01*
X0295047Y0260445D01*
X0295269Y0260308D01*
X0295493Y0260176D01*
X0295721Y0260050D01*
X0295951Y0259930D01*
X0296185Y0259815D01*
X0296421Y0259706D01*
X0296660Y0259603D01*
X0296901Y0259506D01*
X0297145Y0259415D01*
X0297391Y0259329D01*
X0297639Y0259250D01*
X0297888Y0259177D01*
X0298140Y0259110D01*
X0298393Y0259049D01*
X0298647Y0258995D01*
X0298903Y0258947D01*
X0299159Y0258905D01*
X0299417Y0258869D01*
X0299676Y0258840D01*
X0299935Y0258817D01*
X0300194Y0258800D01*
X0300454Y0258790D01*
X0300715Y0258786D01*
X0300975Y0258789D01*
X0301235Y0258798D01*
X0301494Y0258813D01*
X0301754Y0258834D01*
X0302012Y0258863D01*
X0302270Y0258897D01*
X0302527Y0258938D01*
X0302783Y0258985D01*
X0303038Y0259038D01*
X0303291Y0259097D01*
X0303543Y0259163D01*
X0303793Y0259235D01*
X0304041Y0259313D01*
X0304287Y0259397D01*
X0304531Y0259487D01*
X0304773Y0259583D01*
X0305012Y0259685D01*
X0305249Y0259792D01*
X0305483Y0259906D01*
X0305715Y0260025D01*
X0305943Y0260150D01*
X0306168Y0260280D01*
X0306390Y0260416D01*
X0240214Y0341524D02*
X0227473Y0332268D01*
X0221688Y0340230D01*
X0210118Y0356156D01*
X0204332Y0364119D01*
X0217073Y0373375D01*
X0222858Y0365412D01*
X0234429Y0349487D01*
X0240214Y0341524D01*
X0221688Y0340230D02*
X0221435Y0340169D01*
X0221181Y0340115D01*
X0220925Y0340066D01*
X0220668Y0340024D01*
X0220411Y0339989D01*
X0220152Y0339960D01*
X0219893Y0339937D01*
X0219633Y0339920D01*
X0219373Y0339910D01*
X0219113Y0339906D01*
X0218853Y0339909D01*
X0218593Y0339918D01*
X0218333Y0339933D01*
X0218074Y0339955D01*
X0217816Y0339983D01*
X0217558Y0340017D01*
X0217301Y0340058D01*
X0217045Y0340105D01*
X0216790Y0340158D01*
X0216537Y0340218D01*
X0216285Y0340283D01*
X0216035Y0340355D01*
X0215787Y0340433D01*
X0215541Y0340517D01*
X0215297Y0340607D01*
X0215055Y0340703D01*
X0214815Y0340805D01*
X0214579Y0340913D01*
X0214345Y0341026D01*
X0214113Y0341146D01*
X0213885Y0341271D01*
X0213660Y0341401D01*
X0213438Y0341537D01*
X0213220Y0341678D01*
X0213005Y0341825D01*
X0212794Y0341977D01*
X0212586Y0342134D01*
X0212383Y0342296D01*
X0212183Y0342463D01*
X0211988Y0342635D01*
X0211797Y0342811D01*
X0211610Y0342993D01*
X0211428Y0343178D01*
X0211251Y0343369D01*
X0211078Y0343563D01*
X0210910Y0343762D01*
X0210747Y0343964D01*
X0210589Y0344171D01*
X0210436Y0344382D01*
X0210288Y0344596D01*
X0210146Y0344813D01*
X0210009Y0345035D01*
X0209877Y0345259D01*
X0209751Y0345487D01*
X0209631Y0345717D01*
X0209516Y0345951D01*
X0209407Y0346187D01*
X0209304Y0346426D01*
X0209207Y0346667D01*
X0209116Y0346911D01*
X0209030Y0347157D01*
X0208951Y0347405D01*
X0208878Y0347654D01*
X0208811Y0347906D01*
X0208750Y0348159D01*
X0208696Y0348413D01*
X0208648Y0348669D01*
X0208606Y0348925D01*
X0208570Y0349183D01*
X0208541Y0349442D01*
X0208518Y0349701D01*
X0208501Y0349960D01*
X0208491Y0350220D01*
X0208487Y0350481D01*
X0208490Y0350741D01*
X0208499Y0351001D01*
X0208514Y0351260D01*
X0208535Y0351520D01*
X0208564Y0351778D01*
X0208598Y0352036D01*
X0208639Y0352293D01*
X0208686Y0352549D01*
X0208739Y0352804D01*
X0208798Y0353057D01*
X0208864Y0353309D01*
X0208936Y0353559D01*
X0209014Y0353807D01*
X0209098Y0354053D01*
X0209188Y0354297D01*
X0209284Y0354539D01*
X0209386Y0354778D01*
X0209493Y0355015D01*
X0209607Y0355249D01*
X0209726Y0355481D01*
X0209851Y0355709D01*
X0209981Y0355934D01*
X0210117Y0356156D01*
X0241052Y0388769D02*
X0241052Y0396643D01*
X0249910Y0396643D01*
X0263690Y0396643D02*
X0272548Y0396643D01*
X0272548Y0388769D01*
X0265658Y0376957D02*
X0247942Y0376957D01*
X0183814Y0438285D02*
X0180773Y0447646D01*
X0174690Y0466368D01*
X0171648Y0475729D01*
X0156671Y0470862D01*
X0159712Y0461501D01*
X0165795Y0442780D01*
X0168837Y0433419D01*
X0183814Y0438285D01*
X0165795Y0442779D02*
X0165536Y0442800D01*
X0165277Y0442827D01*
X0165019Y0442860D01*
X0164762Y0442899D01*
X0164506Y0442945D01*
X0164251Y0442997D01*
X0163997Y0443055D01*
X0163745Y0443120D01*
X0163495Y0443190D01*
X0163246Y0443267D01*
X0163000Y0443350D01*
X0162755Y0443439D01*
X0162513Y0443534D01*
X0162273Y0443634D01*
X0162036Y0443741D01*
X0161801Y0443853D01*
X0161569Y0443971D01*
X0161340Y0444095D01*
X0161115Y0444225D01*
X0160892Y0444359D01*
X0160673Y0444500D01*
X0160457Y0444645D01*
X0160246Y0444796D01*
X0160037Y0444952D01*
X0159833Y0445113D01*
X0159633Y0445279D01*
X0159437Y0445450D01*
X0159245Y0445626D01*
X0159057Y0445806D01*
X0158874Y0445991D01*
X0158696Y0446180D01*
X0158522Y0446374D01*
X0158353Y0446572D01*
X0158189Y0446774D01*
X0158030Y0446980D01*
X0157876Y0447189D01*
X0157727Y0447403D01*
X0157584Y0447620D01*
X0157446Y0447840D01*
X0157313Y0448064D01*
X0157186Y0448291D01*
X0157064Y0448521D01*
X0156948Y0448754D01*
X0156838Y0448990D01*
X0156734Y0449228D01*
X0156636Y0449469D01*
X0156543Y0449712D01*
X0156457Y0449958D01*
X0156376Y0450205D01*
X0156302Y0450454D01*
X0156234Y0450705D01*
X0156172Y0450958D01*
X0156116Y0451212D01*
X0156067Y0451468D01*
X0156023Y0451724D01*
X0155987Y0451982D01*
X0155956Y0452240D01*
X0155932Y0452499D01*
X0155914Y0452759D01*
X0155902Y0453019D01*
X0155897Y0453279D01*
X0155899Y0453539D01*
X0155906Y0453799D01*
X0155920Y0454059D01*
X0155941Y0454318D01*
X0155967Y0454577D01*
X0156001Y0454835D01*
X0156040Y0455092D01*
X0156086Y0455348D01*
X0156138Y0455603D01*
X0156196Y0455857D01*
X0156260Y0456109D01*
X0156331Y0456359D01*
X0156408Y0456608D01*
X0156491Y0456854D01*
X0156579Y0457099D01*
X0156674Y0457341D01*
X0156775Y0457581D01*
X0156881Y0457818D01*
X0156994Y0458053D01*
X0157112Y0458285D01*
X0157236Y0458514D01*
X0157365Y0458739D01*
X0157500Y0458962D01*
X0157640Y0459181D01*
X0157786Y0459397D01*
X0157937Y0459609D01*
X0158093Y0459817D01*
X0158254Y0460021D01*
X0158420Y0460221D01*
X0158590Y0460418D01*
X0158766Y0460610D01*
X0158946Y0460797D01*
X0159131Y0460980D01*
X0159321Y0461159D01*
X0159514Y0461332D01*
X0159712Y0461501D01*
X0160206Y0547469D02*
X0144457Y0547469D01*
X0144457Y0557312D01*
X0144457Y0576997D01*
X0144457Y0586839D01*
X0160206Y0586839D01*
X0160206Y0576997D01*
X0160206Y0557312D01*
X0160206Y0547469D01*
X0144457Y0557311D02*
X0144217Y0557411D01*
X0143979Y0557516D01*
X0143744Y0557627D01*
X0143511Y0557744D01*
X0143282Y0557867D01*
X0143055Y0557995D01*
X0142832Y0558129D01*
X0142612Y0558268D01*
X0142396Y0558413D01*
X0142183Y0558563D01*
X0141974Y0558718D01*
X0141769Y0558878D01*
X0141568Y0559043D01*
X0141371Y0559213D01*
X0141179Y0559388D01*
X0140990Y0559567D01*
X0140806Y0559751D01*
X0140627Y0559939D01*
X0140452Y0560132D01*
X0140282Y0560329D01*
X0140117Y0560530D01*
X0139957Y0560735D01*
X0139802Y0560944D01*
X0139652Y0561157D01*
X0139508Y0561373D01*
X0139369Y0561593D01*
X0139235Y0561816D01*
X0139107Y0562043D01*
X0138984Y0562272D01*
X0138867Y0562505D01*
X0138756Y0562740D01*
X0138650Y0562978D01*
X0138551Y0563218D01*
X0138457Y0563461D01*
X0138370Y0563706D01*
X0138288Y0563953D01*
X0138212Y0564202D01*
X0138143Y0564452D01*
X0138080Y0564705D01*
X0138023Y0564959D01*
X0137972Y0565214D01*
X0137928Y0565470D01*
X0137889Y0565727D01*
X0137858Y0565986D01*
X0137832Y0566245D01*
X0137813Y0566504D01*
X0137800Y0566764D01*
X0137794Y0567024D01*
X0137794Y0567284D01*
X0137800Y0567544D01*
X0137813Y0567804D01*
X0137832Y0568063D01*
X0137858Y0568322D01*
X0137889Y0568581D01*
X0137928Y0568838D01*
X0137972Y0569094D01*
X0138023Y0569349D01*
X0138080Y0569603D01*
X0138143Y0569856D01*
X0138212Y0570106D01*
X0138288Y0570355D01*
X0138370Y0570602D01*
X0138457Y0570847D01*
X0138551Y0571090D01*
X0138650Y0571330D01*
X0138756Y0571568D01*
X0138867Y0571803D01*
X0138984Y0572036D01*
X0139107Y0572265D01*
X0139235Y0572492D01*
X0139369Y0572715D01*
X0139508Y0572935D01*
X0139652Y0573151D01*
X0139802Y0573364D01*
X0139957Y0573573D01*
X0140117Y0573778D01*
X0140282Y0573979D01*
X0140452Y0574176D01*
X0140627Y0574369D01*
X0140806Y0574557D01*
X0140990Y0574741D01*
X0141179Y0574920D01*
X0141371Y0575095D01*
X0141568Y0575265D01*
X0141769Y0575430D01*
X0141974Y0575590D01*
X0142183Y0575745D01*
X0142396Y0575895D01*
X0142612Y0576040D01*
X0142832Y0576179D01*
X0143055Y0576313D01*
X0143282Y0576441D01*
X0143511Y0576564D01*
X0143744Y0576681D01*
X0143979Y0576792D01*
X0144217Y0576897D01*
X0144457Y0576997D01*
X0171650Y0658729D02*
X0156673Y0663595D01*
X0159714Y0672956D01*
X0165797Y0691678D01*
X0168839Y0701039D01*
X0183816Y0696172D01*
X0180775Y0686811D01*
X0174692Y0668090D01*
X0171650Y0658729D01*
X0159714Y0672956D02*
X0159516Y0673125D01*
X0159323Y0673298D01*
X0159133Y0673477D01*
X0158948Y0673660D01*
X0158768Y0673847D01*
X0158592Y0674039D01*
X0158422Y0674236D01*
X0158256Y0674436D01*
X0158095Y0674640D01*
X0157939Y0674848D01*
X0157788Y0675060D01*
X0157642Y0675276D01*
X0157502Y0675495D01*
X0157367Y0675718D01*
X0157238Y0675943D01*
X0157114Y0676172D01*
X0156996Y0676404D01*
X0156883Y0676639D01*
X0156777Y0676876D01*
X0156676Y0677116D01*
X0156581Y0677358D01*
X0156493Y0677603D01*
X0156410Y0677849D01*
X0156333Y0678098D01*
X0156262Y0678348D01*
X0156198Y0678600D01*
X0156140Y0678854D01*
X0156088Y0679109D01*
X0156042Y0679365D01*
X0156003Y0679622D01*
X0155969Y0679880D01*
X0155943Y0680139D01*
X0155922Y0680398D01*
X0155908Y0680658D01*
X0155901Y0680918D01*
X0155899Y0681178D01*
X0155904Y0681438D01*
X0155916Y0681698D01*
X0155934Y0681958D01*
X0155958Y0682217D01*
X0155989Y0682475D01*
X0156025Y0682733D01*
X0156069Y0682989D01*
X0156118Y0683245D01*
X0156174Y0683499D01*
X0156236Y0683752D01*
X0156304Y0684003D01*
X0156378Y0684252D01*
X0156459Y0684499D01*
X0156545Y0684745D01*
X0156638Y0684988D01*
X0156736Y0685229D01*
X0156840Y0685467D01*
X0156950Y0685703D01*
X0157066Y0685936D01*
X0157188Y0686166D01*
X0157315Y0686393D01*
X0157448Y0686617D01*
X0157586Y0686837D01*
X0157729Y0687054D01*
X0157878Y0687268D01*
X0158032Y0687477D01*
X0158191Y0687683D01*
X0158355Y0687885D01*
X0158524Y0688083D01*
X0158698Y0688277D01*
X0158876Y0688466D01*
X0159059Y0688651D01*
X0159247Y0688831D01*
X0159439Y0689007D01*
X0159635Y0689178D01*
X0159835Y0689344D01*
X0160039Y0689505D01*
X0160247Y0689661D01*
X0160459Y0689812D01*
X0160675Y0689957D01*
X0160894Y0690098D01*
X0161117Y0690232D01*
X0161342Y0690362D01*
X0161571Y0690486D01*
X0161803Y0690604D01*
X0162038Y0690716D01*
X0162275Y0690823D01*
X0162515Y0690923D01*
X0162757Y0691018D01*
X0163002Y0691107D01*
X0163248Y0691190D01*
X0163497Y0691267D01*
X0163747Y0691337D01*
X0163999Y0691402D01*
X0164253Y0691460D01*
X0164508Y0691512D01*
X0164764Y0691558D01*
X0165021Y0691597D01*
X0165279Y0691630D01*
X0165538Y0691657D01*
X0165797Y0691678D01*
X0216388Y0760936D02*
X0203647Y0770192D01*
X0209432Y0778155D01*
X0221003Y0794080D01*
X0226788Y0802043D01*
X0239529Y0792787D01*
X0233743Y0784824D01*
X0222173Y0768898D01*
X0216388Y0760936D01*
X0209432Y0778155D02*
X0209296Y0778377D01*
X0209166Y0778602D01*
X0209041Y0778830D01*
X0208922Y0779062D01*
X0208808Y0779296D01*
X0208701Y0779533D01*
X0208599Y0779772D01*
X0208503Y0780014D01*
X0208413Y0780258D01*
X0208329Y0780504D01*
X0208251Y0780752D01*
X0208179Y0781002D01*
X0208113Y0781254D01*
X0208054Y0781507D01*
X0208001Y0781762D01*
X0207954Y0782018D01*
X0207913Y0782275D01*
X0207879Y0782533D01*
X0207850Y0782791D01*
X0207829Y0783051D01*
X0207814Y0783310D01*
X0207805Y0783570D01*
X0207802Y0783830D01*
X0207806Y0784091D01*
X0207816Y0784351D01*
X0207833Y0784610D01*
X0207856Y0784869D01*
X0207885Y0785128D01*
X0207921Y0785386D01*
X0207963Y0785642D01*
X0208011Y0785898D01*
X0208065Y0786152D01*
X0208126Y0786405D01*
X0208193Y0786657D01*
X0208266Y0786906D01*
X0208345Y0787154D01*
X0208431Y0787400D01*
X0208522Y0787644D01*
X0208619Y0787885D01*
X0208722Y0788124D01*
X0208831Y0788360D01*
X0208946Y0788594D01*
X0209066Y0788824D01*
X0209192Y0789052D01*
X0209324Y0789276D01*
X0209461Y0789498D01*
X0209603Y0789715D01*
X0209751Y0789929D01*
X0209904Y0790140D01*
X0210062Y0790347D01*
X0210225Y0790549D01*
X0210393Y0790748D01*
X0210566Y0790942D01*
X0210743Y0791133D01*
X0210925Y0791318D01*
X0211112Y0791500D01*
X0211303Y0791676D01*
X0211498Y0791848D01*
X0211698Y0792015D01*
X0211901Y0792177D01*
X0212109Y0792334D01*
X0212320Y0792486D01*
X0212535Y0792633D01*
X0212753Y0792774D01*
X0212975Y0792910D01*
X0213200Y0793040D01*
X0213428Y0793165D01*
X0213660Y0793285D01*
X0213894Y0793398D01*
X0214130Y0793506D01*
X0214370Y0793608D01*
X0214612Y0793704D01*
X0214856Y0793794D01*
X0215102Y0793878D01*
X0215350Y0793956D01*
X0215600Y0794028D01*
X0215852Y0794093D01*
X0216105Y0794153D01*
X0216360Y0794206D01*
X0216616Y0794253D01*
X0216873Y0794294D01*
X0217131Y0794328D01*
X0217389Y0794356D01*
X0217648Y0794378D01*
X0217908Y0794393D01*
X0218168Y0794402D01*
X0218428Y0794405D01*
X0218688Y0794401D01*
X0218948Y0794391D01*
X0219208Y0794374D01*
X0219467Y0794351D01*
X0219726Y0794322D01*
X0219983Y0794287D01*
X0220240Y0794245D01*
X0220496Y0794196D01*
X0220750Y0794142D01*
X0221003Y0794081D01*
X0291012Y0844213D02*
X0281756Y0856953D01*
X0289719Y0862739D01*
X0305644Y0874309D01*
X0313607Y0880094D01*
X0322863Y0867354D01*
X0314901Y0861569D01*
X0298975Y0849998D01*
X0291012Y0844213D01*
X0289718Y0862739D02*
X0289657Y0862992D01*
X0289603Y0863246D01*
X0289554Y0863502D01*
X0289512Y0863759D01*
X0289477Y0864016D01*
X0289448Y0864275D01*
X0289425Y0864534D01*
X0289408Y0864794D01*
X0289398Y0865054D01*
X0289394Y0865314D01*
X0289397Y0865574D01*
X0289406Y0865834D01*
X0289421Y0866094D01*
X0289443Y0866353D01*
X0289471Y0866611D01*
X0289505Y0866869D01*
X0289546Y0867126D01*
X0289593Y0867382D01*
X0289646Y0867637D01*
X0289706Y0867890D01*
X0289771Y0868142D01*
X0289843Y0868392D01*
X0289921Y0868640D01*
X0290005Y0868886D01*
X0290095Y0869130D01*
X0290191Y0869372D01*
X0290293Y0869612D01*
X0290401Y0869848D01*
X0290514Y0870082D01*
X0290634Y0870314D01*
X0290759Y0870542D01*
X0290889Y0870767D01*
X0291025Y0870989D01*
X0291166Y0871207D01*
X0291313Y0871422D01*
X0291465Y0871633D01*
X0291622Y0871841D01*
X0291784Y0872044D01*
X0291951Y0872244D01*
X0292123Y0872439D01*
X0292299Y0872630D01*
X0292481Y0872817D01*
X0292666Y0872999D01*
X0292857Y0873176D01*
X0293051Y0873349D01*
X0293250Y0873517D01*
X0293452Y0873680D01*
X0293659Y0873838D01*
X0293870Y0873991D01*
X0294084Y0874139D01*
X0294301Y0874281D01*
X0294523Y0874418D01*
X0294747Y0874550D01*
X0294975Y0874676D01*
X0295205Y0874796D01*
X0295439Y0874911D01*
X0295675Y0875020D01*
X0295914Y0875123D01*
X0296155Y0875220D01*
X0296399Y0875311D01*
X0296645Y0875397D01*
X0296893Y0875476D01*
X0297142Y0875549D01*
X0297394Y0875616D01*
X0297647Y0875677D01*
X0297901Y0875731D01*
X0298157Y0875779D01*
X0298413Y0875821D01*
X0298671Y0875857D01*
X0298930Y0875886D01*
X0299189Y0875909D01*
X0299448Y0875926D01*
X0299708Y0875936D01*
X0299969Y0875940D01*
X0300229Y0875937D01*
X0300489Y0875928D01*
X0300748Y0875913D01*
X0301008Y0875892D01*
X0301266Y0875863D01*
X0301524Y0875829D01*
X0301781Y0875788D01*
X0302037Y0875741D01*
X0302292Y0875688D01*
X0302545Y0875629D01*
X0302797Y0875563D01*
X0303047Y0875491D01*
X0303295Y0875413D01*
X0303541Y0875329D01*
X0303785Y0875239D01*
X0304027Y0875143D01*
X0304266Y0875041D01*
X0304503Y0874934D01*
X0304737Y0874820D01*
X0304969Y0874701D01*
X0305197Y0874576D01*
X0305422Y0874446D01*
X0305644Y0874310D01*
X0387262Y0900416D02*
X0382395Y0915393D01*
X0391756Y0918435D01*
X0410478Y0924518D01*
X0419839Y0927559D01*
X0424705Y0912582D01*
X0415344Y0909540D01*
X0396623Y0903457D01*
X0387262Y0900416D01*
X0391756Y0918435D02*
X0391777Y0918694D01*
X0391804Y0918953D01*
X0391837Y0919211D01*
X0391876Y0919468D01*
X0391922Y0919724D01*
X0391974Y0919979D01*
X0392032Y0920233D01*
X0392097Y0920485D01*
X0392167Y0920735D01*
X0392244Y0920984D01*
X0392327Y0921230D01*
X0392416Y0921475D01*
X0392511Y0921717D01*
X0392611Y0921957D01*
X0392718Y0922194D01*
X0392830Y0922429D01*
X0392948Y0922661D01*
X0393072Y0922890D01*
X0393202Y0923115D01*
X0393336Y0923338D01*
X0393477Y0923557D01*
X0393622Y0923773D01*
X0393773Y0923984D01*
X0393929Y0924193D01*
X0394090Y0924397D01*
X0394256Y0924597D01*
X0394427Y0924793D01*
X0394603Y0924985D01*
X0394783Y0925173D01*
X0394968Y0925356D01*
X0395157Y0925534D01*
X0395351Y0925708D01*
X0395549Y0925877D01*
X0395751Y0926041D01*
X0395957Y0926200D01*
X0396166Y0926354D01*
X0396380Y0926503D01*
X0396597Y0926646D01*
X0396817Y0926784D01*
X0397041Y0926917D01*
X0397268Y0927044D01*
X0397498Y0927166D01*
X0397731Y0927282D01*
X0397967Y0927392D01*
X0398205Y0927496D01*
X0398446Y0927594D01*
X0398689Y0927687D01*
X0398935Y0927773D01*
X0399182Y0927854D01*
X0399431Y0927928D01*
X0399682Y0927996D01*
X0399935Y0928058D01*
X0400189Y0928114D01*
X0400445Y0928163D01*
X0400701Y0928207D01*
X0400959Y0928243D01*
X0401217Y0928274D01*
X0401476Y0928298D01*
X0401736Y0928316D01*
X0401996Y0928328D01*
X0402256Y0928333D01*
X0402516Y0928331D01*
X0402776Y0928324D01*
X0403036Y0928310D01*
X0403295Y0928289D01*
X0403554Y0928263D01*
X0403812Y0928229D01*
X0404069Y0928190D01*
X0404325Y0928144D01*
X0404580Y0928092D01*
X0404834Y0928034D01*
X0405086Y0927970D01*
X0405336Y0927899D01*
X0405585Y0927822D01*
X0405831Y0927739D01*
X0406076Y0927651D01*
X0406318Y0927556D01*
X0406558Y0927455D01*
X0406795Y0927349D01*
X0407030Y0927236D01*
X0407262Y0927118D01*
X0407491Y0926994D01*
X0407716Y0926865D01*
X0407939Y0926730D01*
X0408158Y0926590D01*
X0408374Y0926444D01*
X0408586Y0926293D01*
X0408794Y0926137D01*
X0408998Y0925976D01*
X0409198Y0925810D01*
X0409395Y0925640D01*
X0409587Y0925464D01*
X0409774Y0925284D01*
X0409957Y0925099D01*
X0410136Y0924909D01*
X0410309Y0924716D01*
X0410478Y0924518D01*
X0496800Y0924457D02*
X0496800Y0940206D01*
X0506643Y0940206D01*
X0526328Y0940206D01*
X0536170Y0940206D01*
X0536170Y0924457D01*
X0526328Y0924457D01*
X0506643Y0924457D01*
X0496800Y0924457D01*
X0506642Y0940205D02*
X0506742Y0940445D01*
X0506847Y0940683D01*
X0506958Y0940918D01*
X0507075Y0941151D01*
X0507198Y0941380D01*
X0507326Y0941607D01*
X0507460Y0941830D01*
X0507599Y0942050D01*
X0507744Y0942266D01*
X0507894Y0942479D01*
X0508049Y0942688D01*
X0508209Y0942893D01*
X0508374Y0943094D01*
X0508544Y0943291D01*
X0508719Y0943483D01*
X0508898Y0943672D01*
X0509082Y0943856D01*
X0509270Y0944035D01*
X0509463Y0944210D01*
X0509660Y0944380D01*
X0509861Y0944545D01*
X0510066Y0944705D01*
X0510275Y0944860D01*
X0510488Y0945010D01*
X0510704Y0945154D01*
X0510924Y0945293D01*
X0511147Y0945427D01*
X0511374Y0945555D01*
X0511603Y0945678D01*
X0511836Y0945795D01*
X0512071Y0945906D01*
X0512309Y0946012D01*
X0512549Y0946111D01*
X0512792Y0946205D01*
X0513037Y0946292D01*
X0513284Y0946374D01*
X0513533Y0946450D01*
X0513783Y0946519D01*
X0514036Y0946582D01*
X0514290Y0946639D01*
X0514545Y0946690D01*
X0514801Y0946734D01*
X0515058Y0946773D01*
X0515317Y0946804D01*
X0515576Y0946830D01*
X0515835Y0946849D01*
X0516095Y0946862D01*
X0516355Y0946868D01*
X0516615Y0946868D01*
X0516875Y0946862D01*
X0517135Y0946849D01*
X0517394Y0946830D01*
X0517653Y0946804D01*
X0517912Y0946773D01*
X0518169Y0946734D01*
X0518425Y0946690D01*
X0518680Y0946639D01*
X0518934Y0946582D01*
X0519187Y0946519D01*
X0519437Y0946450D01*
X0519686Y0946374D01*
X0519933Y0946292D01*
X0520178Y0946205D01*
X0520421Y0946111D01*
X0520661Y0946012D01*
X0520899Y0945906D01*
X0521134Y0945795D01*
X0521367Y0945678D01*
X0521596Y0945555D01*
X0521823Y0945427D01*
X0522046Y0945293D01*
X0522266Y0945154D01*
X0522482Y0945010D01*
X0522695Y0944860D01*
X0522904Y0944705D01*
X0523109Y0944545D01*
X0523310Y0944380D01*
X0523507Y0944210D01*
X0523700Y0944035D01*
X0523888Y0943856D01*
X0524072Y0943672D01*
X0524251Y0943483D01*
X0524426Y0943291D01*
X0524596Y0943094D01*
X0524761Y0942893D01*
X0524921Y0942688D01*
X0525076Y0942479D01*
X0525226Y0942266D01*
X0525371Y0942050D01*
X0525510Y0941830D01*
X0525644Y0941607D01*
X0525772Y0941380D01*
X0525895Y0941151D01*
X0526012Y0940918D01*
X0526123Y0940683D01*
X0526228Y0940445D01*
X0526328Y0940205D01*
X0607666Y0913643D02*
X0612532Y0928620D01*
X0621893Y0925578D01*
X0640615Y0919495D01*
X0649976Y0916454D01*
X0645109Y0901477D01*
X0635748Y0904518D01*
X0617027Y0910601D01*
X0607666Y0913643D01*
X0621893Y0925579D02*
X0622062Y0925777D01*
X0622235Y0925970D01*
X0622414Y0926160D01*
X0622597Y0926345D01*
X0622784Y0926525D01*
X0622976Y0926701D01*
X0623173Y0926871D01*
X0623373Y0927037D01*
X0623577Y0927198D01*
X0623785Y0927354D01*
X0623997Y0927505D01*
X0624213Y0927651D01*
X0624432Y0927791D01*
X0624655Y0927926D01*
X0624880Y0928055D01*
X0625109Y0928179D01*
X0625341Y0928297D01*
X0625576Y0928410D01*
X0625813Y0928516D01*
X0626053Y0928617D01*
X0626295Y0928712D01*
X0626540Y0928800D01*
X0626786Y0928883D01*
X0627035Y0928960D01*
X0627285Y0929031D01*
X0627537Y0929095D01*
X0627791Y0929153D01*
X0628046Y0929205D01*
X0628302Y0929251D01*
X0628559Y0929290D01*
X0628817Y0929324D01*
X0629076Y0929350D01*
X0629335Y0929371D01*
X0629595Y0929385D01*
X0629855Y0929392D01*
X0630115Y0929394D01*
X0630375Y0929389D01*
X0630635Y0929377D01*
X0630895Y0929359D01*
X0631154Y0929335D01*
X0631412Y0929304D01*
X0631670Y0929268D01*
X0631926Y0929224D01*
X0632182Y0929175D01*
X0632436Y0929119D01*
X0632689Y0929057D01*
X0632940Y0928989D01*
X0633189Y0928915D01*
X0633436Y0928834D01*
X0633682Y0928748D01*
X0633925Y0928655D01*
X0634166Y0928557D01*
X0634404Y0928453D01*
X0634640Y0928343D01*
X0634873Y0928227D01*
X0635103Y0928105D01*
X0635330Y0927978D01*
X0635554Y0927845D01*
X0635774Y0927707D01*
X0635991Y0927564D01*
X0636205Y0927415D01*
X0636414Y0927261D01*
X0636620Y0927102D01*
X0636822Y0926938D01*
X0637020Y0926769D01*
X0637214Y0926595D01*
X0637403Y0926417D01*
X0637588Y0926234D01*
X0637768Y0926046D01*
X0637944Y0925854D01*
X0638115Y0925658D01*
X0638281Y0925458D01*
X0638442Y0925254D01*
X0638598Y0925046D01*
X0638749Y0924834D01*
X0638894Y0924618D01*
X0639035Y0924399D01*
X0639169Y0924176D01*
X0639299Y0923951D01*
X0639423Y0923722D01*
X0639541Y0923490D01*
X0639653Y0923255D01*
X0639760Y0923018D01*
X0639860Y0922778D01*
X0639955Y0922536D01*
X0640044Y0922291D01*
X0640127Y0922045D01*
X0640204Y0921796D01*
X0640274Y0921546D01*
X0640339Y0921294D01*
X0640397Y0921040D01*
X0640449Y0920785D01*
X0640495Y0920529D01*
X0640534Y0920272D01*
X0640567Y0920014D01*
X0640594Y0919755D01*
X0640615Y0919496D01*
X0710109Y0868433D02*
X0719365Y0881173D01*
X0727328Y0875388D01*
X0743254Y0863818D01*
X0751216Y0858032D01*
X0741960Y0845292D01*
X0733997Y0851077D01*
X0718072Y0862648D01*
X0710109Y0868433D01*
X0727328Y0875389D02*
X0727550Y0875525D01*
X0727775Y0875655D01*
X0728003Y0875780D01*
X0728235Y0875899D01*
X0728469Y0876013D01*
X0728706Y0876120D01*
X0728945Y0876222D01*
X0729187Y0876318D01*
X0729431Y0876408D01*
X0729677Y0876492D01*
X0729925Y0876570D01*
X0730175Y0876642D01*
X0730427Y0876708D01*
X0730680Y0876767D01*
X0730935Y0876820D01*
X0731191Y0876867D01*
X0731448Y0876908D01*
X0731706Y0876942D01*
X0731964Y0876971D01*
X0732224Y0876992D01*
X0732483Y0877007D01*
X0732743Y0877016D01*
X0733003Y0877019D01*
X0733264Y0877015D01*
X0733524Y0877005D01*
X0733783Y0876988D01*
X0734042Y0876965D01*
X0734301Y0876936D01*
X0734559Y0876900D01*
X0734815Y0876858D01*
X0735071Y0876810D01*
X0735325Y0876756D01*
X0735578Y0876695D01*
X0735830Y0876628D01*
X0736079Y0876555D01*
X0736327Y0876476D01*
X0736573Y0876390D01*
X0736817Y0876299D01*
X0737058Y0876202D01*
X0737297Y0876099D01*
X0737533Y0875990D01*
X0737767Y0875875D01*
X0737997Y0875755D01*
X0738225Y0875629D01*
X0738449Y0875497D01*
X0738671Y0875360D01*
X0738888Y0875218D01*
X0739102Y0875070D01*
X0739313Y0874917D01*
X0739520Y0874759D01*
X0739722Y0874596D01*
X0739921Y0874428D01*
X0740115Y0874255D01*
X0740306Y0874078D01*
X0740491Y0873896D01*
X0740673Y0873709D01*
X0740849Y0873518D01*
X0741021Y0873323D01*
X0741188Y0873123D01*
X0741350Y0872920D01*
X0741507Y0872712D01*
X0741659Y0872501D01*
X0741806Y0872286D01*
X0741947Y0872068D01*
X0742083Y0871846D01*
X0742213Y0871621D01*
X0742338Y0871393D01*
X0742458Y0871161D01*
X0742571Y0870927D01*
X0742679Y0870691D01*
X0742781Y0870451D01*
X0742877Y0870209D01*
X0742967Y0869965D01*
X0743051Y0869719D01*
X0743129Y0869471D01*
X0743201Y0869221D01*
X0743266Y0868969D01*
X0743326Y0868716D01*
X0743379Y0868461D01*
X0743426Y0868205D01*
X0743467Y0867948D01*
X0743501Y0867690D01*
X0743529Y0867432D01*
X0743551Y0867173D01*
X0743566Y0866913D01*
X0743575Y0866653D01*
X0743578Y0866393D01*
X0743574Y0866133D01*
X0743564Y0865873D01*
X0743547Y0865613D01*
X0743524Y0865354D01*
X0743495Y0865095D01*
X0743460Y0864838D01*
X0743418Y0864581D01*
X0743369Y0864325D01*
X0743315Y0864071D01*
X0743254Y0863818D01*
X0796875Y0796332D02*
X0802660Y0788370D01*
X0814230Y0772444D01*
X0820016Y0764481D01*
X0807275Y0755225D01*
X0801490Y0763188D01*
X0789919Y0779113D01*
X0784134Y0787076D01*
X0796875Y0796332D01*
X0802660Y0788370D02*
X0802913Y0788431D01*
X0803167Y0788485D01*
X0803423Y0788534D01*
X0803680Y0788576D01*
X0803937Y0788611D01*
X0804196Y0788640D01*
X0804455Y0788663D01*
X0804715Y0788680D01*
X0804975Y0788690D01*
X0805235Y0788694D01*
X0805495Y0788691D01*
X0805755Y0788682D01*
X0806015Y0788667D01*
X0806274Y0788645D01*
X0806532Y0788617D01*
X0806790Y0788583D01*
X0807047Y0788542D01*
X0807303Y0788495D01*
X0807558Y0788442D01*
X0807811Y0788382D01*
X0808063Y0788317D01*
X0808313Y0788245D01*
X0808561Y0788167D01*
X0808807Y0788083D01*
X0809051Y0787993D01*
X0809293Y0787897D01*
X0809533Y0787795D01*
X0809769Y0787687D01*
X0810003Y0787574D01*
X0810235Y0787454D01*
X0810463Y0787329D01*
X0810688Y0787199D01*
X0810910Y0787063D01*
X0811128Y0786922D01*
X0811343Y0786775D01*
X0811554Y0786623D01*
X0811762Y0786466D01*
X0811965Y0786304D01*
X0812165Y0786137D01*
X0812360Y0785965D01*
X0812551Y0785789D01*
X0812738Y0785607D01*
X0812920Y0785422D01*
X0813097Y0785231D01*
X0813270Y0785037D01*
X0813438Y0784838D01*
X0813601Y0784636D01*
X0813759Y0784429D01*
X0813912Y0784218D01*
X0814060Y0784004D01*
X0814202Y0783787D01*
X0814339Y0783565D01*
X0814471Y0783341D01*
X0814597Y0783113D01*
X0814717Y0782883D01*
X0814832Y0782649D01*
X0814941Y0782413D01*
X0815044Y0782174D01*
X0815141Y0781933D01*
X0815232Y0781689D01*
X0815318Y0781443D01*
X0815397Y0781195D01*
X0815470Y0780946D01*
X0815537Y0780694D01*
X0815598Y0780441D01*
X0815652Y0780187D01*
X0815700Y0779931D01*
X0815742Y0779675D01*
X0815778Y0779417D01*
X0815807Y0779158D01*
X0815830Y0778899D01*
X0815847Y0778640D01*
X0815857Y0778380D01*
X0815861Y0778119D01*
X0815858Y0777859D01*
X0815849Y0777599D01*
X0815834Y0777340D01*
X0815813Y0777080D01*
X0815784Y0776822D01*
X0815750Y0776564D01*
X0815709Y0776307D01*
X0815662Y0776051D01*
X0815609Y0775796D01*
X0815550Y0775543D01*
X0815484Y0775291D01*
X0815412Y0775041D01*
X0815334Y0774793D01*
X0815250Y0774547D01*
X0815160Y0774303D01*
X0815064Y0774061D01*
X0814962Y0773822D01*
X0814855Y0773585D01*
X0814741Y0773351D01*
X0814622Y0773119D01*
X0814497Y0772891D01*
X0814367Y0772666D01*
X0814231Y0772444D01*
X0740354Y0661520D02*
X0725377Y0656653D01*
X0728418Y0647292D01*
X0734501Y0628571D01*
X0737543Y0619210D01*
X0752520Y0624076D01*
X0749478Y0633437D01*
X0743395Y0652159D01*
X0740354Y0661520D01*
X0743395Y0652159D02*
X0743654Y0652138D01*
X0743913Y0652111D01*
X0744171Y0652078D01*
X0744428Y0652039D01*
X0744684Y0651993D01*
X0744939Y0651941D01*
X0745193Y0651883D01*
X0745445Y0651818D01*
X0745695Y0651748D01*
X0745944Y0651671D01*
X0746190Y0651588D01*
X0746435Y0651499D01*
X0746677Y0651404D01*
X0746917Y0651304D01*
X0747154Y0651197D01*
X0747389Y0651085D01*
X0747621Y0650967D01*
X0747850Y0650843D01*
X0748075Y0650713D01*
X0748298Y0650579D01*
X0748517Y0650438D01*
X0748733Y0650293D01*
X0748944Y0650142D01*
X0749153Y0649986D01*
X0749357Y0649825D01*
X0749557Y0649659D01*
X0749753Y0649488D01*
X0749945Y0649312D01*
X0750133Y0649132D01*
X0750316Y0648947D01*
X0750494Y0648758D01*
X0750668Y0648564D01*
X0750837Y0648366D01*
X0751001Y0648164D01*
X0751160Y0647958D01*
X0751314Y0647749D01*
X0751463Y0647535D01*
X0751606Y0647318D01*
X0751744Y0647098D01*
X0751877Y0646874D01*
X0752004Y0646647D01*
X0752126Y0646417D01*
X0752242Y0646184D01*
X0752352Y0645948D01*
X0752456Y0645710D01*
X0752554Y0645469D01*
X0752647Y0645226D01*
X0752733Y0644980D01*
X0752814Y0644733D01*
X0752888Y0644484D01*
X0752956Y0644233D01*
X0753018Y0643980D01*
X0753074Y0643726D01*
X0753123Y0643470D01*
X0753167Y0643214D01*
X0753203Y0642956D01*
X0753234Y0642698D01*
X0753258Y0642439D01*
X0753276Y0642179D01*
X0753288Y0641919D01*
X0753293Y0641659D01*
X0753291Y0641399D01*
X0753284Y0641139D01*
X0753270Y0640879D01*
X0753249Y0640620D01*
X0753223Y0640361D01*
X0753189Y0640103D01*
X0753150Y0639846D01*
X0753104Y0639590D01*
X0753052Y0639335D01*
X0752994Y0639081D01*
X0752930Y0638829D01*
X0752859Y0638579D01*
X0752782Y0638330D01*
X0752699Y0638084D01*
X0752611Y0637839D01*
X0752516Y0637597D01*
X0752415Y0637357D01*
X0752309Y0637120D01*
X0752196Y0636885D01*
X0752078Y0636653D01*
X0751954Y0636424D01*
X0751825Y0636199D01*
X0751690Y0635976D01*
X0751550Y0635757D01*
X0751404Y0635541D01*
X0751253Y0635329D01*
X0751097Y0635121D01*
X0750936Y0634917D01*
X0750770Y0634717D01*
X0750600Y0634520D01*
X0750424Y0634328D01*
X0750244Y0634141D01*
X0750059Y0633958D01*
X0749869Y0633779D01*
X0749676Y0633606D01*
X0749478Y0633437D01*
X0734103Y0587469D02*
X0718355Y0587469D01*
X0718355Y0577627D01*
X0718355Y0557942D01*
X0718355Y0548099D01*
X0734103Y0548099D01*
X0734103Y0557942D01*
X0734103Y0577627D01*
X0734103Y0587469D01*
X0734103Y0577627D02*
X0734343Y0577527D01*
X0734581Y0577422D01*
X0734816Y0577311D01*
X0735049Y0577194D01*
X0735278Y0577071D01*
X0735505Y0576943D01*
X0735728Y0576809D01*
X0735948Y0576670D01*
X0736164Y0576525D01*
X0736377Y0576375D01*
X0736586Y0576220D01*
X0736791Y0576060D01*
X0736992Y0575895D01*
X0737189Y0575725D01*
X0737381Y0575550D01*
X0737570Y0575371D01*
X0737754Y0575187D01*
X0737933Y0574999D01*
X0738108Y0574806D01*
X0738278Y0574609D01*
X0738443Y0574408D01*
X0738603Y0574203D01*
X0738758Y0573994D01*
X0738908Y0573781D01*
X0739052Y0573565D01*
X0739191Y0573345D01*
X0739325Y0573122D01*
X0739453Y0572895D01*
X0739576Y0572666D01*
X0739693Y0572433D01*
X0739804Y0572198D01*
X0739910Y0571960D01*
X0740009Y0571720D01*
X0740103Y0571477D01*
X0740190Y0571232D01*
X0740272Y0570985D01*
X0740348Y0570736D01*
X0740417Y0570486D01*
X0740480Y0570233D01*
X0740537Y0569979D01*
X0740588Y0569724D01*
X0740632Y0569468D01*
X0740671Y0569211D01*
X0740702Y0568952D01*
X0740728Y0568693D01*
X0740747Y0568434D01*
X0740760Y0568174D01*
X0740766Y0567914D01*
X0740766Y0567654D01*
X0740760Y0567394D01*
X0740747Y0567134D01*
X0740728Y0566875D01*
X0740702Y0566616D01*
X0740671Y0566357D01*
X0740632Y0566100D01*
X0740588Y0565844D01*
X0740537Y0565589D01*
X0740480Y0565335D01*
X0740417Y0565082D01*
X0740348Y0564832D01*
X0740272Y0564583D01*
X0740190Y0564336D01*
X0740103Y0564091D01*
X0740009Y0563848D01*
X0739910Y0563608D01*
X0739804Y0563370D01*
X0739693Y0563135D01*
X0739576Y0562902D01*
X0739453Y0562673D01*
X0739325Y0562446D01*
X0739191Y0562223D01*
X0739052Y0562003D01*
X0738908Y0561787D01*
X0738758Y0561574D01*
X0738603Y0561365D01*
X0738443Y0561160D01*
X0738278Y0560959D01*
X0738108Y0560762D01*
X0737933Y0560569D01*
X0737754Y0560381D01*
X0737570Y0560197D01*
X0737381Y0560018D01*
X0737189Y0559843D01*
X0736992Y0559673D01*
X0736791Y0559508D01*
X0736586Y0559348D01*
X0736377Y0559193D01*
X0736164Y0559043D01*
X0735948Y0558898D01*
X0735728Y0558759D01*
X0735505Y0558625D01*
X0735278Y0558497D01*
X0735049Y0558374D01*
X0734816Y0558257D01*
X0734581Y0558146D01*
X0734343Y0558041D01*
X0734103Y0557941D01*
X0737777Y0516682D02*
X0752754Y0511816D01*
X0749712Y0502455D01*
X0743629Y0483733D01*
X0740588Y0474372D01*
X0725611Y0479239D01*
X0728652Y0488600D01*
X0734735Y0507321D01*
X0737777Y0516682D01*
X0749712Y0502455D02*
X0749910Y0502286D01*
X0750103Y0502113D01*
X0750293Y0501934D01*
X0750478Y0501751D01*
X0750658Y0501564D01*
X0750834Y0501372D01*
X0751004Y0501175D01*
X0751170Y0500975D01*
X0751331Y0500771D01*
X0751487Y0500563D01*
X0751638Y0500351D01*
X0751784Y0500135D01*
X0751924Y0499916D01*
X0752059Y0499693D01*
X0752188Y0499468D01*
X0752312Y0499239D01*
X0752430Y0499007D01*
X0752543Y0498772D01*
X0752649Y0498535D01*
X0752750Y0498295D01*
X0752845Y0498053D01*
X0752933Y0497808D01*
X0753016Y0497562D01*
X0753093Y0497313D01*
X0753164Y0497063D01*
X0753228Y0496811D01*
X0753286Y0496557D01*
X0753338Y0496302D01*
X0753384Y0496046D01*
X0753423Y0495789D01*
X0753457Y0495531D01*
X0753483Y0495272D01*
X0753504Y0495013D01*
X0753518Y0494753D01*
X0753525Y0494493D01*
X0753527Y0494233D01*
X0753522Y0493973D01*
X0753510Y0493713D01*
X0753492Y0493453D01*
X0753468Y0493194D01*
X0753437Y0492936D01*
X0753401Y0492678D01*
X0753357Y0492422D01*
X0753308Y0492166D01*
X0753252Y0491912D01*
X0753190Y0491659D01*
X0753122Y0491408D01*
X0753048Y0491159D01*
X0752967Y0490912D01*
X0752881Y0490666D01*
X0752788Y0490423D01*
X0752690Y0490182D01*
X0752586Y0489944D01*
X0752476Y0489708D01*
X0752360Y0489475D01*
X0752238Y0489245D01*
X0752111Y0489018D01*
X0751978Y0488794D01*
X0751840Y0488574D01*
X0751697Y0488357D01*
X0751548Y0488143D01*
X0751394Y0487934D01*
X0751235Y0487728D01*
X0751071Y0487526D01*
X0750902Y0487328D01*
X0750728Y0487134D01*
X0750550Y0486945D01*
X0750367Y0486760D01*
X0750179Y0486580D01*
X0749987Y0486404D01*
X0749791Y0486233D01*
X0749591Y0486067D01*
X0749387Y0485906D01*
X0749179Y0485750D01*
X0748967Y0485599D01*
X0748751Y0485454D01*
X0748532Y0485313D01*
X0748309Y0485179D01*
X0748084Y0485049D01*
X0747855Y0484925D01*
X0747623Y0484807D01*
X0747388Y0484695D01*
X0747151Y0484588D01*
X0746911Y0484488D01*
X0746669Y0484393D01*
X0746424Y0484304D01*
X0746178Y0484221D01*
X0745929Y0484144D01*
X0745679Y0484074D01*
X0745427Y0484009D01*
X0745173Y0483951D01*
X0744918Y0483899D01*
X0744662Y0483853D01*
X0744405Y0483814D01*
X0744147Y0483781D01*
X0743888Y0483754D01*
X0743629Y0483733D01*
X0807921Y0381365D02*
X0820662Y0372109D01*
X0814876Y0364146D01*
X0803306Y0348220D01*
X0797520Y0340258D01*
X0784780Y0349514D01*
X0790565Y0357477D01*
X0802136Y0373402D01*
X0807921Y0381365D01*
X0814877Y0364146D02*
X0815013Y0363924D01*
X0815143Y0363699D01*
X0815268Y0363471D01*
X0815387Y0363239D01*
X0815501Y0363005D01*
X0815608Y0362768D01*
X0815710Y0362529D01*
X0815806Y0362287D01*
X0815896Y0362043D01*
X0815980Y0361797D01*
X0816058Y0361549D01*
X0816130Y0361299D01*
X0816196Y0361047D01*
X0816255Y0360794D01*
X0816308Y0360539D01*
X0816355Y0360283D01*
X0816396Y0360026D01*
X0816430Y0359768D01*
X0816459Y0359510D01*
X0816480Y0359250D01*
X0816495Y0358991D01*
X0816504Y0358731D01*
X0816507Y0358471D01*
X0816503Y0358210D01*
X0816493Y0357950D01*
X0816476Y0357691D01*
X0816453Y0357432D01*
X0816424Y0357173D01*
X0816388Y0356915D01*
X0816346Y0356659D01*
X0816298Y0356403D01*
X0816244Y0356149D01*
X0816183Y0355896D01*
X0816116Y0355644D01*
X0816043Y0355395D01*
X0815964Y0355147D01*
X0815878Y0354901D01*
X0815787Y0354657D01*
X0815690Y0354416D01*
X0815587Y0354177D01*
X0815478Y0353941D01*
X0815363Y0353707D01*
X0815243Y0353477D01*
X0815117Y0353249D01*
X0814985Y0353025D01*
X0814848Y0352803D01*
X0814706Y0352586D01*
X0814558Y0352372D01*
X0814405Y0352161D01*
X0814247Y0351954D01*
X0814084Y0351752D01*
X0813916Y0351553D01*
X0813743Y0351359D01*
X0813566Y0351168D01*
X0813384Y0350983D01*
X0813197Y0350801D01*
X0813006Y0350625D01*
X0812811Y0350453D01*
X0812611Y0350286D01*
X0812408Y0350124D01*
X0812200Y0349967D01*
X0811989Y0349815D01*
X0811774Y0349668D01*
X0811556Y0349527D01*
X0811334Y0349391D01*
X0811109Y0349261D01*
X0810881Y0349136D01*
X0810649Y0349016D01*
X0810415Y0348903D01*
X0810179Y0348795D01*
X0809939Y0348693D01*
X0809697Y0348597D01*
X0809453Y0348507D01*
X0809207Y0348423D01*
X0808959Y0348345D01*
X0808709Y0348273D01*
X0808457Y0348208D01*
X0808204Y0348148D01*
X0807949Y0348095D01*
X0807693Y0348048D01*
X0807436Y0348007D01*
X0807178Y0347973D01*
X0806920Y0347945D01*
X0806661Y0347923D01*
X0806401Y0347908D01*
X0806141Y0347899D01*
X0805881Y0347896D01*
X0805621Y0347900D01*
X0805361Y0347910D01*
X0805101Y0347927D01*
X0804842Y0347950D01*
X0804583Y0347979D01*
X0804326Y0348014D01*
X0804069Y0348056D01*
X0803813Y0348105D01*
X0803559Y0348159D01*
X0803306Y0348220D01*
X0743100Y0291395D02*
X0752356Y0278655D01*
X0744393Y0272869D01*
X0728468Y0261299D01*
X0720505Y0255513D01*
X0711248Y0268254D01*
X0719211Y0274039D01*
X0735137Y0285610D01*
X0743100Y0291395D01*
X0744393Y0272869D02*
X0744454Y0272616D01*
X0744508Y0272362D01*
X0744557Y0272106D01*
X0744599Y0271849D01*
X0744634Y0271592D01*
X0744663Y0271333D01*
X0744686Y0271074D01*
X0744703Y0270814D01*
X0744713Y0270554D01*
X0744717Y0270294D01*
X0744714Y0270034D01*
X0744705Y0269774D01*
X0744690Y0269514D01*
X0744668Y0269255D01*
X0744640Y0268997D01*
X0744606Y0268739D01*
X0744565Y0268482D01*
X0744518Y0268226D01*
X0744465Y0267971D01*
X0744405Y0267718D01*
X0744340Y0267466D01*
X0744268Y0267216D01*
X0744190Y0266968D01*
X0744106Y0266722D01*
X0744016Y0266478D01*
X0743920Y0266236D01*
X0743818Y0265996D01*
X0743710Y0265760D01*
X0743597Y0265526D01*
X0743477Y0265294D01*
X0743352Y0265066D01*
X0743222Y0264841D01*
X0743086Y0264619D01*
X0742945Y0264401D01*
X0742798Y0264186D01*
X0742646Y0263975D01*
X0742489Y0263767D01*
X0742327Y0263564D01*
X0742160Y0263364D01*
X0741988Y0263169D01*
X0741812Y0262978D01*
X0741630Y0262791D01*
X0741445Y0262609D01*
X0741254Y0262432D01*
X0741060Y0262259D01*
X0740861Y0262091D01*
X0740659Y0261928D01*
X0740452Y0261770D01*
X0740241Y0261617D01*
X0740027Y0261469D01*
X0739810Y0261327D01*
X0739588Y0261190D01*
X0739364Y0261058D01*
X0739136Y0260932D01*
X0738906Y0260812D01*
X0738672Y0260697D01*
X0738436Y0260588D01*
X0738197Y0260485D01*
X0737956Y0260388D01*
X0737712Y0260297D01*
X0737466Y0260211D01*
X0737218Y0260132D01*
X0736969Y0260059D01*
X0736717Y0259992D01*
X0736464Y0259931D01*
X0736210Y0259877D01*
X0735954Y0259829D01*
X0735698Y0259787D01*
X0735440Y0259751D01*
X0735181Y0259722D01*
X0734922Y0259699D01*
X0734663Y0259682D01*
X0734403Y0259672D01*
X0734142Y0259668D01*
X0733882Y0259671D01*
X0733622Y0259680D01*
X0733363Y0259695D01*
X0733103Y0259716D01*
X0732845Y0259745D01*
X0732587Y0259779D01*
X0732330Y0259820D01*
X0732074Y0259867D01*
X0731819Y0259920D01*
X0731566Y0259979D01*
X0731314Y0260045D01*
X0731064Y0260117D01*
X0730816Y0260195D01*
X0730570Y0260279D01*
X0730326Y0260369D01*
X0730084Y0260465D01*
X0729845Y0260567D01*
X0729608Y0260674D01*
X0729374Y0260788D01*
X0729142Y0260907D01*
X0728914Y0261032D01*
X0728689Y0261162D01*
X0728467Y0261298D01*
X0646378Y0234798D02*
X0651244Y0219821D01*
X0641883Y0216780D01*
X0623162Y0210697D01*
X0613801Y0207655D01*
X0608934Y0222632D01*
X0618295Y0225674D01*
X0637017Y0231757D01*
X0646378Y0234798D01*
X0641884Y0216779D02*
X0641863Y0216520D01*
X0641836Y0216261D01*
X0641803Y0216003D01*
X0641764Y0215746D01*
X0641718Y0215490D01*
X0641666Y0215235D01*
X0641608Y0214981D01*
X0641543Y0214729D01*
X0641473Y0214479D01*
X0641396Y0214230D01*
X0641313Y0213984D01*
X0641224Y0213739D01*
X0641129Y0213497D01*
X0641029Y0213257D01*
X0640922Y0213020D01*
X0640810Y0212785D01*
X0640692Y0212553D01*
X0640568Y0212324D01*
X0640438Y0212099D01*
X0640304Y0211876D01*
X0640163Y0211657D01*
X0640018Y0211441D01*
X0639867Y0211230D01*
X0639711Y0211021D01*
X0639550Y0210817D01*
X0639384Y0210617D01*
X0639213Y0210421D01*
X0639037Y0210229D01*
X0638857Y0210041D01*
X0638672Y0209858D01*
X0638483Y0209680D01*
X0638289Y0209506D01*
X0638091Y0209337D01*
X0637889Y0209173D01*
X0637683Y0209014D01*
X0637474Y0208860D01*
X0637260Y0208711D01*
X0637043Y0208568D01*
X0636823Y0208430D01*
X0636599Y0208297D01*
X0636372Y0208170D01*
X0636142Y0208048D01*
X0635909Y0207932D01*
X0635673Y0207822D01*
X0635435Y0207718D01*
X0635194Y0207620D01*
X0634951Y0207527D01*
X0634705Y0207441D01*
X0634458Y0207360D01*
X0634209Y0207286D01*
X0633958Y0207218D01*
X0633705Y0207156D01*
X0633451Y0207100D01*
X0633195Y0207051D01*
X0632939Y0207007D01*
X0632681Y0206971D01*
X0632423Y0206940D01*
X0632164Y0206916D01*
X0631904Y0206898D01*
X0631644Y0206886D01*
X0631384Y0206881D01*
X0631124Y0206883D01*
X0630864Y0206890D01*
X0630604Y0206904D01*
X0630345Y0206925D01*
X0630086Y0206951D01*
X0629828Y0206985D01*
X0629571Y0207024D01*
X0629315Y0207070D01*
X0629060Y0207122D01*
X0628806Y0207180D01*
X0628554Y0207244D01*
X0628304Y0207315D01*
X0628055Y0207392D01*
X0627809Y0207475D01*
X0627564Y0207563D01*
X0627322Y0207658D01*
X0627082Y0207759D01*
X0626845Y0207865D01*
X0626610Y0207978D01*
X0626378Y0208096D01*
X0626149Y0208220D01*
X0625924Y0208349D01*
X0625701Y0208484D01*
X0625482Y0208624D01*
X0625266Y0208770D01*
X0625054Y0208921D01*
X0624846Y0209077D01*
X0624642Y0209238D01*
X0624442Y0209404D01*
X0624245Y0209574D01*
X0624053Y0209750D01*
X0623866Y0209930D01*
X0623683Y0210115D01*
X0623504Y0210305D01*
X0623331Y0210498D01*
X0623162Y0210696D01*
X0624831Y0251052D02*
X0616957Y0251052D01*
X0616957Y0259910D01*
X0616957Y0273690D02*
X0616957Y0282548D01*
X0624831Y0282548D01*
X0636643Y0275658D02*
X0636643Y0257942D01*
X0624831Y0331052D02*
X0616957Y0331052D01*
X0616957Y0339910D01*
X0616957Y0353690D02*
X0616957Y0362548D01*
X0624831Y0362548D01*
X0636643Y0355658D02*
X0636643Y0337942D01*
X0526643Y0305658D02*
X0526643Y0287942D01*
X0514831Y0281052D02*
X0506957Y0281052D01*
X0506957Y0289910D01*
X0506957Y0303690D02*
X0506957Y0312548D01*
X0514831Y0312548D01*
X0516643Y0346052D02*
X0508769Y0346052D01*
X0516643Y0346052D02*
X0516643Y0354910D01*
X0516643Y0368690D02*
X0516643Y0377548D01*
X0508769Y0377548D01*
X0496957Y0370658D02*
X0496957Y0352942D01*
X0471643Y0355658D02*
X0471643Y0337942D01*
X0459831Y0331052D02*
X0451957Y0331052D01*
X0451957Y0339910D01*
X0451957Y0353690D02*
X0451957Y0362548D01*
X0459831Y0362548D01*
X0431367Y0411170D02*
X0431367Y0431643D01*
X0502233Y0431643D01*
X0502233Y0411170D01*
X0431367Y0411170D01*
X0461800Y0427036D02*
X0461800Y0432036D01*
X0461800Y0427036D02*
X0471800Y0427036D01*
X0471800Y0432036D01*
X0459831Y0282548D02*
X0451957Y0282548D01*
X0451957Y0273690D01*
X0451957Y0259910D02*
X0451957Y0251052D01*
X0459831Y0251052D01*
X0471643Y0257942D02*
X0471643Y0275658D01*
X0426052Y0222438D02*
X0421186Y0207460D01*
X0411825Y0210502D01*
X0393103Y0216585D01*
X0383743Y0219626D01*
X0388609Y0234604D01*
X0397970Y0231562D01*
X0416691Y0225479D01*
X0426052Y0222438D01*
X0411825Y0210502D02*
X0411656Y0210304D01*
X0411483Y0210111D01*
X0411304Y0209921D01*
X0411121Y0209736D01*
X0410934Y0209556D01*
X0410742Y0209380D01*
X0410545Y0209210D01*
X0410345Y0209044D01*
X0410141Y0208883D01*
X0409933Y0208727D01*
X0409721Y0208576D01*
X0409505Y0208430D01*
X0409286Y0208290D01*
X0409063Y0208155D01*
X0408838Y0208026D01*
X0408609Y0207902D01*
X0408377Y0207784D01*
X0408142Y0207671D01*
X0407905Y0207565D01*
X0407665Y0207464D01*
X0407423Y0207369D01*
X0407178Y0207281D01*
X0406932Y0207198D01*
X0406683Y0207121D01*
X0406433Y0207050D01*
X0406181Y0206986D01*
X0405927Y0206928D01*
X0405672Y0206876D01*
X0405416Y0206830D01*
X0405159Y0206791D01*
X0404901Y0206757D01*
X0404642Y0206731D01*
X0404383Y0206710D01*
X0404123Y0206696D01*
X0403863Y0206689D01*
X0403603Y0206687D01*
X0403343Y0206692D01*
X0403083Y0206704D01*
X0402823Y0206722D01*
X0402564Y0206746D01*
X0402306Y0206777D01*
X0402048Y0206813D01*
X0401792Y0206857D01*
X0401536Y0206906D01*
X0401282Y0206962D01*
X0401029Y0207024D01*
X0400778Y0207092D01*
X0400529Y0207166D01*
X0400282Y0207247D01*
X0400036Y0207333D01*
X0399793Y0207426D01*
X0399552Y0207524D01*
X0399314Y0207628D01*
X0399078Y0207738D01*
X0398845Y0207854D01*
X0398615Y0207976D01*
X0398388Y0208103D01*
X0398164Y0208236D01*
X0397944Y0208374D01*
X0397727Y0208517D01*
X0397513Y0208666D01*
X0397304Y0208820D01*
X0397098Y0208979D01*
X0396896Y0209143D01*
X0396698Y0209312D01*
X0396504Y0209486D01*
X0396315Y0209664D01*
X0396130Y0209847D01*
X0395950Y0210035D01*
X0395774Y0210227D01*
X0395603Y0210423D01*
X0395437Y0210623D01*
X0395276Y0210827D01*
X0395120Y0211035D01*
X0394969Y0211247D01*
X0394824Y0211463D01*
X0394683Y0211682D01*
X0394549Y0211905D01*
X0394419Y0212130D01*
X0394295Y0212359D01*
X0394177Y0212591D01*
X0394065Y0212826D01*
X0393958Y0213063D01*
X0393858Y0213303D01*
X0393763Y0213545D01*
X0393674Y0213790D01*
X0393591Y0214036D01*
X0393514Y0214285D01*
X0393444Y0214535D01*
X0393379Y0214787D01*
X0393321Y0215041D01*
X0393269Y0215296D01*
X0393223Y0215552D01*
X0393184Y0215809D01*
X0393151Y0216067D01*
X0393124Y0216326D01*
X0393103Y0216585D01*
X0497706Y0211229D02*
X0497706Y0195481D01*
X0507548Y0195481D01*
X0527233Y0195481D01*
X0537076Y0195481D01*
X0537076Y0211229D01*
X0527233Y0211229D01*
X0507548Y0211229D01*
X0497706Y0211229D01*
X0507548Y0195481D02*
X0507648Y0195241D01*
X0507753Y0195003D01*
X0507864Y0194768D01*
X0507981Y0194535D01*
X0508104Y0194306D01*
X0508232Y0194079D01*
X0508366Y0193856D01*
X0508505Y0193636D01*
X0508650Y0193420D01*
X0508800Y0193207D01*
X0508955Y0192998D01*
X0509115Y0192793D01*
X0509280Y0192592D01*
X0509450Y0192395D01*
X0509625Y0192203D01*
X0509804Y0192014D01*
X0509988Y0191830D01*
X0510176Y0191651D01*
X0510369Y0191476D01*
X0510566Y0191306D01*
X0510767Y0191141D01*
X0510972Y0190981D01*
X0511181Y0190826D01*
X0511394Y0190676D01*
X0511610Y0190532D01*
X0511830Y0190393D01*
X0512053Y0190259D01*
X0512280Y0190131D01*
X0512509Y0190008D01*
X0512742Y0189891D01*
X0512977Y0189780D01*
X0513215Y0189674D01*
X0513455Y0189575D01*
X0513698Y0189481D01*
X0513943Y0189394D01*
X0514190Y0189312D01*
X0514439Y0189236D01*
X0514689Y0189167D01*
X0514942Y0189104D01*
X0515196Y0189047D01*
X0515451Y0188996D01*
X0515707Y0188952D01*
X0515964Y0188913D01*
X0516223Y0188882D01*
X0516482Y0188856D01*
X0516741Y0188837D01*
X0517001Y0188824D01*
X0517261Y0188818D01*
X0517521Y0188818D01*
X0517781Y0188824D01*
X0518041Y0188837D01*
X0518300Y0188856D01*
X0518559Y0188882D01*
X0518818Y0188913D01*
X0519075Y0188952D01*
X0519331Y0188996D01*
X0519586Y0189047D01*
X0519840Y0189104D01*
X0520093Y0189167D01*
X0520343Y0189236D01*
X0520592Y0189312D01*
X0520839Y0189394D01*
X0521084Y0189481D01*
X0521327Y0189575D01*
X0521567Y0189674D01*
X0521805Y0189780D01*
X0522040Y0189891D01*
X0522273Y0190008D01*
X0522502Y0190131D01*
X0522729Y0190259D01*
X0522952Y0190393D01*
X0523172Y0190532D01*
X0523388Y0190676D01*
X0523601Y0190826D01*
X0523810Y0190981D01*
X0524015Y0191141D01*
X0524216Y0191306D01*
X0524413Y0191476D01*
X0524606Y0191651D01*
X0524794Y0191830D01*
X0524978Y0192014D01*
X0525157Y0192203D01*
X0525332Y0192395D01*
X0525502Y0192592D01*
X0525667Y0192793D01*
X0525827Y0192998D01*
X0525982Y0193207D01*
X0526132Y0193420D01*
X0526277Y0193636D01*
X0526416Y0193856D01*
X0526550Y0194079D01*
X0526678Y0194306D01*
X0526801Y0194535D01*
X0526918Y0194768D01*
X0527029Y0195003D01*
X0527134Y0195241D01*
X0527234Y0195481D01*
D13*
X0495602Y0285678D02*
X0495602Y0288947D01*
X0497237Y0287312D02*
X0493967Y0287312D01*
X0495602Y0306091D02*
X0495602Y0309360D01*
X0528002Y0348053D02*
X0528002Y0351322D01*
X0528002Y0368466D02*
X0528002Y0371735D01*
X0529637Y0370101D02*
X0526367Y0370101D01*
X0603967Y0337312D02*
X0607237Y0337312D01*
X0605602Y0335678D02*
X0605602Y0338947D01*
X0605602Y0356091D02*
X0605602Y0359360D01*
X0605602Y0279360D02*
X0605602Y0276091D01*
X0605602Y0258947D02*
X0605602Y0255678D01*
X0607237Y0257312D02*
X0603967Y0257312D01*
X0442237Y0257312D02*
X0438967Y0257312D01*
X0440602Y0255678D02*
X0440602Y0258947D01*
X0440602Y0276091D02*
X0440602Y0279360D01*
X0440602Y0335678D02*
X0440602Y0338947D01*
X0442237Y0337312D02*
X0438967Y0337312D01*
X0440602Y0356091D02*
X0440602Y0359360D01*
X0270547Y0408002D02*
X0267278Y0408002D01*
X0250134Y0408002D02*
X0246865Y0408002D01*
X0248499Y0409637D02*
X0248499Y0406367D01*
M02*
