<?xml version="1.0" encoding="UTF-8" ?>
<!DOCTYPE svg PUBLIC "-//W3C//DTD SVG 1.1//EN" "http://www.w3.org/Graphics/SVG/1.1/DTD/svg11.dtd">
<svg width="1189pt" height="841pt" viewBox="0 0 1189 841" version="1.1" xmlns="http://www.w3.org/2000/svg">
<path fill="#fefefe" d=" M 0.00 0.00 L 1189.00 0.00 L 1189.00 841.00 L 0.00 841.00 L 0.00 0.00 Z" />
<path fill="#010101" d=" M 322.94 267.99 C 330.07 262.63 339.22 260.75 347.99 260.75 C 389.14 260.75 430.29 260.73 471.45 260.76 C 467.29 277.08 462.90 293.36 458.56 309.64 C 427.07 309.61 395.59 309.58 364.11 309.65 C 359.18 329.11 353.88 348.49 348.57 367.85 C 373.71 367.87 398.84 367.86 423.98 367.85 C 431.86 368.34 440.80 368.24 446.93 374.02 C 451.73 378.10 453.27 385.10 451.50 391.03 C 441.59 430.47 430.60 469.63 420.02 508.90 C 418.23 516.35 414.16 523.46 407.64 527.71 C 400.45 532.58 391.56 533.90 383.07 534.43 C 337.20 534.47 291.33 534.36 245.46 534.48 C 239.23 518.24 233.45 501.79 229.40 484.86 C 240.26 484.64 251.15 485.35 261.96 484.27 C 297.33 484.28 332.69 484.29 368.05 484.27 C 374.12 462.27 379.79 440.16 385.92 418.19 C 358.25 418.17 330.58 418.18 302.90 418.19 C 297.18 417.90 291.05 417.03 286.49 413.27 C 282.68 410.04 281.24 404.83 281.39 400.00 C 281.91 393.33 284.10 386.99 285.67 380.54 C 293.95 349.53 302.41 318.58 310.69 287.58 C 312.64 280.03 316.42 272.55 322.94 267.99 Z" />
<path fill="#010101" d=" M 485.85 416.85 C 499.82 364.82 513.40 312.68 527.51 260.70 C 547.23 260.80 566.96 260.72 586.69 260.74 C 582.14 279.33 576.48 297.63 571.84 316.21 C 567.23 333.48 562.51 350.73 558.17 368.06 C 583.95 367.59 609.75 367.97 635.54 367.87 C 645.05 332.18 654.56 296.49 663.97 260.78 C 683.48 260.70 702.99 260.76 722.51 260.74 C 710.77 304.76 699.06 348.79 687.35 392.81 C 674.68 440.02 661.93 487.20 649.38 534.44 C 629.93 534.40 610.48 534.48 591.03 534.40 C 601.24 495.49 611.76 456.66 621.92 417.75 C 596.21 417.74 570.50 417.75 544.78 417.74 C 539.29 438.65 533.64 459.51 527.88 480.35 C 523.09 498.39 518.39 516.46 513.36 534.44 C 493.70 534.40 474.03 534.47 454.37 534.41 C 464.86 495.22 475.00 455.94 485.85 416.85 Z" />
<path fill="#010101" d=" M 725.91 408.89 C 739.10 359.49 752.14 310.06 765.38 260.68 C 814.89 260.85 864.40 260.66 913.91 260.77 C 919.90 276.68 925.59 292.74 929.61 309.28 C 911.04 309.08 892.51 309.82 873.95 309.61 C 853.44 309.60 832.93 309.65 812.41 309.59 C 807.04 328.98 802.02 348.47 796.66 367.86 C 821.43 367.83 846.21 367.89 870.99 367.83 C 872.67 367.77 874.35 368.06 876.01 368.41 C 871.76 385.09 867.50 401.79 862.48 418.25 C 836.14 418.10 809.80 418.25 783.46 418.17 C 773.06 456.93 762.37 495.60 752.13 534.41 C 732.18 534.44 712.23 534.46 692.29 534.39 C 703.49 492.56 714.36 450.63 725.91 408.89 Z" />
<path fill="#366833" d=" M 900.03 563.90 C 900.65 564.25 901.24 564.65 901.80 565.11 C 909.13 573.10 916.31 581.23 923.77 589.11 C 901.32 628.55 871.40 663.65 836.24 692.31 C 832.03 695.89 827.52 699.10 823.28 702.64 C 662.17 702.71 501.06 702.69 339.95 702.65 C 315.31 683.77 292.48 662.42 273.01 638.19 C 260.49 622.81 249.39 606.33 239.48 589.17 C 246.42 581.53 253.58 574.08 260.21 566.18 C 264.50 574.03 268.77 581.92 273.75 589.37 C 477.64 589.34 681.53 589.30 885.41 589.39 C 890.76 581.18 895.64 572.65 900.03 563.90 Z" />
<path fill="#fefefe" d=" M 361.74 613.23 C 376.50 613.19 391.26 613.23 406.03 613.20 C 408.64 613.19 411.58 613.44 413.51 615.43 C 415.09 616.83 414.69 619.11 414.83 621.00 C 414.70 630.29 415.01 639.60 414.68 648.89 C 413.97 653.83 407.78 653.79 403.98 653.77 C 407.49 661.30 411.44 668.61 414.92 676.15 C 409.50 676.22 404.08 676.14 398.67 676.21 C 394.74 668.77 391.27 661.10 387.37 653.65 C 384.30 653.69 381.22 653.68 378.16 653.63 C 377.50 661.13 378.07 668.67 377.82 676.19 C 372.47 676.17 367.11 676.20 361.76 676.17 C 361.70 655.19 361.75 634.21 361.74 613.23 Z" />
<path fill="#fefefe" d=" M 433.26 613.34 C 445.85 613.05 458.46 613.29 471.05 613.22 C 474.95 612.94 479.91 615.51 479.43 620.00 C 479.43 636.00 479.41 652.01 479.44 668.01 C 479.95 672.60 475.52 676.59 471.04 676.19 C 458.97 676.17 446.90 676.21 434.83 676.17 C 430.49 676.35 426.07 672.59 426.51 668.07 C 426.57 651.68 426.45 635.29 426.56 618.91 C 426.58 615.49 430.27 613.61 433.26 613.34 Z" />
<path fill="#fefefe" d=" M 490.80 613.26 C 505.54 613.15 520.29 613.24 535.03 613.21 C 537.65 613.12 540.48 613.71 542.26 615.79 C 544.54 618.32 543.68 621.96 543.86 625.06 C 543.61 629.65 544.37 634.35 543.38 638.88 C 541.59 641.37 538.66 642.68 535.70 643.12 C 538.83 644.92 543.67 646.54 543.79 650.84 C 543.91 656.58 543.88 662.32 543.81 668.06 C 543.79 672.60 539.50 676.20 535.10 676.15 C 522.07 676.26 509.03 676.11 496.00 676.22 C 494.23 676.24 492.46 676.07 490.72 675.80 C 490.91 654.96 490.75 634.11 490.80 613.26 Z" />
<path fill="#fefefe" d=" M 562.34 613.33 C 574.90 613.05 587.49 613.29 600.06 613.21 C 603.93 612.93 608.91 615.45 608.46 619.93 C 608.47 635.98 608.44 652.03 608.47 668.07 C 608.95 672.65 604.49 676.62 600.04 676.19 C 587.97 676.16 575.91 676.21 563.85 676.17 C 559.52 676.33 555.09 672.56 555.57 668.03 C 555.63 651.67 555.52 635.30 555.62 618.94 C 555.60 615.49 559.33 613.60 562.34 613.33 Z" />
<path fill="#fefefe" d=" M 618.65 613.23 C 633.52 613.20 648.39 613.20 663.26 613.23 C 663.27 616.93 663.27 620.62 663.25 624.32 C 658.46 624.37 653.67 624.31 648.88 624.40 C 648.81 641.66 648.93 658.92 648.82 676.19 C 643.48 676.17 638.14 676.20 632.80 676.17 C 632.74 658.90 632.80 641.63 632.77 624.36 C 628.07 624.33 623.37 624.36 618.67 624.33 C 618.64 620.62 618.64 616.93 618.65 613.23 Z" />
<path fill="#fefefe" d=" M 703.31 615.25 C 705.68 613.13 709.04 613.19 712.03 613.19 C 722.07 613.27 732.12 613.13 742.16 613.28 C 742.16 616.98 742.16 620.68 742.14 624.39 C 733.71 624.48 725.28 624.34 716.85 624.47 C 716.84 637.89 716.85 651.31 716.84 664.74 C 725.03 664.96 733.22 664.69 741.41 664.86 C 743.10 667.83 741.82 671.93 742.10 675.33 C 741.91 675.53 741.55 675.92 741.37 676.12 C 730.85 676.19 720.33 676.24 709.82 676.09 C 705.66 676.17 700.79 673.77 700.70 669.09 C 700.55 653.73 700.71 638.36 700.63 623.00 C 700.47 620.21 701.05 617.13 703.31 615.25 Z" />
<path fill="#fefefe" d=" M 754.87 614.83 C 756.82 613.15 759.56 613.28 761.98 613.20 C 772.81 613.22 783.65 613.20 794.48 613.22 C 794.48 616.93 794.49 620.63 794.47 624.34 C 785.88 624.37 777.30 624.32 768.72 624.37 C 768.72 628.85 768.72 633.34 768.72 637.82 C 776.18 637.98 783.65 637.62 791.10 638.00 C 793.96 638.14 798.49 639.22 797.80 643.00 C 797.65 653.20 798.05 663.43 797.60 673.62 C 795.49 676.05 791.98 676.07 789.02 676.19 C 777.22 676.14 765.42 676.26 753.62 676.14 C 753.44 675.94 753.06 675.56 752.88 675.37 C 752.69 671.84 752.86 668.31 752.84 664.78 C 762.80 664.71 772.76 664.78 782.72 664.74 C 782.74 659.62 782.74 654.49 782.72 649.37 C 774.79 649.28 766.86 649.52 758.94 649.27 C 756.02 649.23 753.01 647.22 753.01 644.07 C 752.50 636.73 752.90 629.36 752.77 622.01 C 752.87 619.55 752.58 616.43 754.87 614.83 Z" />
<path fill="#fefefe" d=" M 673.81 613.26 C 679.16 613.17 684.52 613.22 689.89 613.22 C 689.84 634.21 689.94 655.20 689.83 676.19 C 684.76 676.11 679.69 676.30 674.63 676.13 C 674.44 675.95 674.04 675.59 673.84 675.41 C 673.74 654.70 673.83 633.98 673.81 613.26 Z" />
<path fill="#366833" d=" M 377.84 624.47 C 384.84 624.21 391.85 624.40 398.86 624.36 C 398.89 630.41 398.87 636.47 398.87 642.52 C 391.86 642.53 384.86 642.59 377.87 642.48 C 377.85 636.48 377.89 630.47 377.84 624.47 Z" />
<path fill="#366833" d=" M 442.24 624.36 C 449.36 624.35 456.49 624.35 463.61 624.36 C 463.57 637.95 463.67 651.55 463.56 665.14 C 456.49 665.14 449.41 665.12 442.34 665.15 C 442.10 651.55 442.29 637.95 442.24 624.36 Z" />
<path fill="#366833" d=" M 571.28 624.36 C 578.40 624.35 585.52 624.35 592.64 624.36 C 592.61 637.95 592.72 651.55 592.58 665.14 C 585.51 665.13 578.43 665.13 571.36 665.14 C 571.17 651.55 571.31 637.95 571.28 624.36 Z" />
<path fill="#366833" d=" M 507.11 624.44 C 514.12 624.42 521.13 624.37 528.14 624.48 C 528.14 628.90 528.13 633.33 528.15 637.76 C 521.05 637.89 513.95 637.92 506.86 637.75 C 506.99 633.31 507.17 628.88 507.11 624.44 Z" />
<path fill="#366833" d=" M 506.86 649.44 C 513.95 649.31 521.05 649.33 528.14 649.43 C 528.14 654.53 528.13 659.62 528.15 664.72 C 521.14 664.91 514.12 664.79 507.11 664.80 C 507.18 659.68 506.96 654.56 506.86 649.44 Z" />
</svg>
