G75*
%MOIN*%
%OFA0B0*%
%FSLAX25Y25*%
%IPPOS*%
%LPD*%
%AMOC8*
5,1,8,0,0,1.08239X$1,22.5*
%
%ADD10R,0.09449X0.03150*%
%ADD11R,0.05118X0.05906*%
%ADD12R,0.05906X0.05118*%
%ADD13R,0.03937X0.21654*%
%ADD14R,0.06299X0.13386*%
%ADD15R,0.02756X0.14567*%
%ADD16R,0.06299X0.05906*%
%ADD17R,0.04724X0.04724*%
%ADD18R,0.08200X0.15000*%
%ADD19R,0.45000X0.35000*%
%ADD20R,0.15000X0.08200*%
%ADD21R,0.35000X0.45000*%
D10*
X0141177Y0393815D03*
X0141177Y0398815D03*
X0141177Y0403815D03*
X0141177Y0408815D03*
X0141177Y0413815D03*
X0141177Y0418815D03*
X0141177Y0423815D03*
X0141177Y0428815D03*
X0141177Y0433815D03*
X0141177Y0438815D03*
X0156177Y0438815D03*
X0156177Y0433815D03*
X0156177Y0428815D03*
X0156177Y0423815D03*
X0156177Y0418815D03*
X0156177Y0413815D03*
X0156177Y0408815D03*
X0156177Y0403815D03*
X0156177Y0398815D03*
X0156177Y0393815D03*
D11*
X0220213Y0425843D03*
X0226906Y0425843D03*
X0226561Y0477015D03*
X0219869Y0477015D03*
X0285764Y0545764D03*
X0292457Y0545764D03*
X0422969Y0416315D03*
X0429661Y0416315D03*
X0294031Y0283402D03*
X0287339Y0283402D03*
D12*
X0293115Y0365069D03*
X0293115Y0371761D03*
X0261551Y0401709D03*
X0261551Y0408402D03*
X0146315Y0377693D03*
X0146315Y0371000D03*
D13*
X0267299Y0363638D03*
X0275173Y0363638D03*
X0235252Y0364228D03*
X0227378Y0364228D03*
X0327378Y0364228D03*
X0335252Y0364228D03*
D14*
X0344701Y0371315D03*
X0317929Y0371315D03*
X0284622Y0370724D03*
X0257850Y0370724D03*
X0244701Y0371315D03*
X0217929Y0371315D03*
D15*
X0290173Y0348559D03*
X0289780Y0316669D03*
D16*
X0171197Y0431709D03*
D17*
X0184287Y0435646D03*
X0184287Y0427772D03*
D18*
X0279110Y0385606D03*
X0299110Y0385606D03*
D19*
X0289110Y0430606D03*
D20*
X0241315Y0474465D03*
X0241315Y0494465D03*
D21*
X0286315Y0484465D03*
M02*
