%
M48
M72
T01C0.01772
T02C0.01969
T03C0.02362
T04C0.02756
T05C0.05000
T06C0.05118
T07C0.05512
%
T01
X111315Y323953
X121315Y341315
X91315Y351315
X119976Y390370
X126315Y381315
X91315Y401315
X116315Y431315
X121315Y446315
X141315Y443559
X150579Y445101
X165016Y442142
X165016Y437535
X165803Y433402
X164622Y429661
X164622Y425724
X171315Y443835
X186669Y443835
X195331Y428874
X199661Y428874
X203815Y428815
X192102Y416315
X187457Y423362
X216472Y447890
X220528Y445016
X323677Y442654
X392969Y414701
X400055Y422969
X414858Y416315
X455567Y419425
X455409Y410055
X508953Y410055
X562102Y410843
X615173Y407299
X663835Y416669
X296315Y586315
X296315Y596315
X296315Y621315
X296315Y641315
X296315Y676315
X296315Y696709
X296315Y731315
X296315Y756315
X289819Y803283
X91315Y511315
X121315Y501315
X116315Y481315
X91315Y456315
X286709Y291315
X295528Y247496
X296315Y241315
X296354Y215567
X296315Y191315
X296315Y156315
X296315Y136315
X296315Y101315
X296315Y76315
X296315Y46315
X289425Y30449
T02
X286315Y326315
X281315Y331315
X200429Y402142
X196197Y405921
X199681Y411217
X195449Y413087
X202811Y414701
X189425Y427693
X188717Y432063
X194346Y441709
X188638Y450528
X178008Y447378
X165961Y413677
X164543Y407142
X163441Y395016
X161079Y383992
X139661Y447850
X136315Y451315
X140055Y455724
X508717Y422969
X522339Y425094
X569346Y425252
X615921Y425331
T03
X341709Y438362
X341315Y446315
X315882Y426079
X271315Y386315
X266315Y391315
X251315Y406315
X236315Y411315
X226709Y420016
X241315Y436315
X236315Y451315
X225882Y443126
X206315Y401315
X201315Y396315
X191315Y406315
X166738Y447705
X158915Y451315
X233913Y383598
X241394Y388323
X246315Y381315
X299543Y514543
T04
X301315Y374425
X321315Y361315
T05
X316315Y405134
X316315Y435134
X301315Y456315
X271315Y456315
T06
X271315Y456315
X301315Y456315
X316315Y435134
X316315Y405134
T07
X176512Y406157
X176512Y386472
M30
