G75*
%MOIN*%
%OFA0B0*%
%FSLAX25Y25*%
%IPPOS*%
%LPD*%
%AMOC8*
5,1,8,0,0,1.08239X$1,22.5*
%
%ADD10C,0.02372*%
%ADD11C,0.08277*%
%ADD12C,0.05600*%
%ADD13R,0.10049X0.03750*%
%ADD14R,0.05718X0.06506*%
%ADD15R,0.06506X0.05718*%
%ADD16R,0.04537X0.22254*%
%ADD17R,0.06899X0.13986*%
%ADD18R,0.03356X0.15167*%
%ADD19C,0.09970*%
%ADD20R,0.06899X0.06506*%
%ADD21R,0.05324X0.05324*%
%ADD22R,0.08800X0.15600*%
%ADD23R,0.45600X0.35600*%
%ADD24R,0.15600X0.08800*%
%ADD25R,0.35600X0.45600*%
%ADD26C,0.03772*%
%ADD27C,0.04362*%
%ADD28C,0.03969*%
%ADD29C,0.04756*%
D10*
X0289425Y0030449D03*
X0663835Y0416669D03*
X0289819Y0803283D03*
D11*
X0301315Y0456315D03*
X0316315Y0435134D03*
X0316315Y0405134D03*
X0271315Y0456315D03*
D12*
X0271315Y0456315D03*
X0301315Y0456315D03*
X0316315Y0435134D03*
X0316315Y0405134D03*
D13*
X0156177Y0403815D03*
X0156177Y0408815D03*
X0156177Y0413815D03*
X0156177Y0418815D03*
X0156177Y0423815D03*
X0156177Y0428815D03*
X0156177Y0433815D03*
X0156177Y0438815D03*
X0141177Y0438815D03*
X0141177Y0433815D03*
X0141177Y0428815D03*
X0141177Y0423815D03*
X0141177Y0418815D03*
X0141177Y0413815D03*
X0141177Y0408815D03*
X0141177Y0403815D03*
X0141177Y0398815D03*
X0141177Y0393815D03*
X0156177Y0393815D03*
X0156177Y0398815D03*
D14*
X0220213Y0425843D03*
X0226906Y0425843D03*
X0226561Y0477015D03*
X0219869Y0477015D03*
X0285764Y0545764D03*
X0292457Y0545764D03*
X0422969Y0416315D03*
X0429661Y0416315D03*
X0294031Y0283402D03*
X0287339Y0283402D03*
D15*
X0293115Y0365069D03*
X0293115Y0371761D03*
X0261551Y0401709D03*
X0261551Y0408402D03*
X0146315Y0377693D03*
X0146315Y0371000D03*
D16*
X0227378Y0364228D03*
X0235252Y0364228D03*
X0267299Y0363638D03*
X0275173Y0363638D03*
X0327378Y0364228D03*
X0335252Y0364228D03*
D17*
X0344701Y0371315D03*
X0317929Y0371315D03*
X0284622Y0370724D03*
X0257850Y0370724D03*
X0244701Y0371315D03*
X0217929Y0371315D03*
D18*
X0290173Y0348559D03*
X0289780Y0316669D03*
D19*
X0181197Y0386472D02*
X0171827Y0386472D01*
X0171827Y0406157D02*
X0181197Y0406157D01*
D20*
X0171197Y0431709D03*
D21*
X0184287Y0435646D03*
X0184287Y0427772D03*
D22*
X0279110Y0385606D03*
X0299110Y0385606D03*
D23*
X0289110Y0430606D03*
D24*
X0241315Y0474465D03*
X0241315Y0494465D03*
D25*
X0286315Y0484465D03*
D26*
X0111315Y0323953D03*
X0121315Y0341315D03*
X0091315Y0351315D03*
X0119976Y0390370D03*
X0126315Y0381315D03*
X0091315Y0401315D03*
X0116315Y0431315D03*
X0121315Y0446315D03*
X0141315Y0443559D03*
X0150579Y0445101D03*
X0165016Y0442142D03*
X0165016Y0437535D03*
X0165803Y0433402D03*
X0164622Y0429661D03*
X0164622Y0425724D03*
X0171315Y0443835D03*
X0186669Y0443835D03*
X0195331Y0428874D03*
X0199661Y0428874D03*
X0203815Y0428815D03*
X0192102Y0416315D03*
X0187457Y0423362D03*
X0216472Y0447890D03*
X0220528Y0445016D03*
X0323677Y0442654D03*
X0392969Y0414701D03*
X0400055Y0422969D03*
X0414858Y0416315D03*
X0455567Y0419425D03*
X0455409Y0410055D03*
X0508953Y0410055D03*
X0562102Y0410843D03*
X0615173Y0407299D03*
X0295528Y0247496D03*
X0296315Y0241315D03*
X0296354Y0215567D03*
X0296315Y0191315D03*
X0296315Y0156315D03*
X0296315Y0136315D03*
X0296315Y0101315D03*
X0296315Y0076315D03*
X0296315Y0046315D03*
X0286709Y0291315D03*
X0116315Y0481315D03*
X0121315Y0501315D03*
X0091315Y0511315D03*
X0091315Y0456315D03*
X0296315Y0586315D03*
X0296315Y0596315D03*
X0296315Y0621315D03*
X0296315Y0641315D03*
X0296315Y0676315D03*
X0296315Y0696709D03*
X0296315Y0731315D03*
X0296315Y0756315D03*
D27*
X0299543Y0514543D03*
X0341315Y0446315D03*
X0341709Y0438362D03*
X0315882Y0426079D03*
X0271315Y0386315D03*
X0266315Y0391315D03*
X0251315Y0406315D03*
X0236315Y0411315D03*
X0226709Y0420016D03*
X0241315Y0436315D03*
X0236315Y0451315D03*
X0225882Y0443126D03*
X0206315Y0401315D03*
X0201315Y0396315D03*
X0191315Y0406315D03*
X0166738Y0447705D03*
X0158915Y0451315D03*
X0233913Y0383598D03*
X0241394Y0388323D03*
X0246315Y0381315D03*
D28*
X0281315Y0331315D03*
X0286315Y0326315D03*
X0200429Y0402142D03*
X0196197Y0405921D03*
X0199681Y0411217D03*
X0195449Y0413087D03*
X0202811Y0414701D03*
X0189425Y0427693D03*
X0188717Y0432063D03*
X0194346Y0441709D03*
X0188638Y0450528D03*
X0178008Y0447378D03*
X0165961Y0413677D03*
X0164543Y0407142D03*
X0163441Y0395016D03*
X0161079Y0383992D03*
X0139661Y0447850D03*
X0136315Y0451315D03*
X0140055Y0455724D03*
X0508717Y0422969D03*
X0522339Y0425094D03*
X0569346Y0425252D03*
X0615921Y0425331D03*
D29*
X0321315Y0361315D03*
X0301315Y0374425D03*
M02*
